<svg id="Шар_1" data-name="Шар 1" xmlns="http://www.w3.org/2000/svg" viewBox="0 0 101.04 101.44"><defs><style>.cls-1{fill:#242d36}</style></defs><path class="cls-1" d="M86 62.44a.77.77 0 01.21-.57.78.78 0 00-.23.56.76.76 0 00.26.52.78.78 0 01-.24-.51z"/><path class="cls-1" d="M98.38 53.21H2.68A2.68 2.68 0 000 55.89v4.59a2.68 2.68 0 002.68 2.68h.77v4.59h4.61l.75 33.68h4.58l.75-33.68h72.4l.74 33.31v.38h4.58l.75-33.68h4.25v-4.62h1.52a2.68 2.68 0 002.62-2.68v-4.6a2.69 2.69 0 00-2.62-2.65zm-86.51 46.7h-1.55l-.75-32.16h3zm78.47 0h-1.55L88 67.75h3zm9.19-39.42a1.15 1.15 0 01-1.15 1.15H86.76a.72.72 0 00-.23 0h-.07a.65.65 0 00-.17.13.77.77 0 00-.21.57.78.78 0 00.24.51l.1.08a.74.74 0 00.42.13h8.54v3.06H5v-2.96h77.35a.76.76 0 00.7-.46v-.12a.68.68 0 000-.15.72.72 0 00-.06-.31v-.1l-.11-.15-.07-.07a.72.72 0 00-.44-.18H2.68a1.15 1.15 0 01-1.15-1.15v-4.58a1.15 1.15 0 011.15-1.15h95.69a1.15 1.15 0 011.15 1.15z"/><path class="cls-1" d="M86.75 61.63a.62.62 0 00-.21 0 .72.72 0 01.23 0zM17.59 79.24v.65-.65zm.02-6.89v8.42l.44 18.76h3.28l.16-7.19L50 88.4l28.43 3.93.17 7.19h3.28l.43-18.76v-8.41zm2 25.65l-.43-17.23h1.13L19.85 98zm2-7.21l.15-6.28 22.67 3.13zm.12-7.79v-2.19h56.38l.05 2.2L50 86.86zm33.82 4.67l22.64-3.12.15 6.27zM80.33 98H80l-.43-17.23h1.13zm.43-18.76H19.14v-5.36h61.63zM34.95 25.5a.77.77 0 01-.51-.58l-.21-1.15a3.3 3.3 0 00-2.45-2.61V0h-1.54v21.15a3.29 3.29 0 00-2.48 2.62l-.21 1.14a.77.77 0 01-.51.59 12.68 12.68 0 00-8.85 12.4v.36l.15.11.18.29h24.94l.11-.19.22-.2v-.36a12.84 12.84 0 00-8.84-12.41zM19.73 37.13A11.22 11.22 0 0127.51 27a2.28 2.28 0 001.56-1.76l.21-1.15a1.77 1.77 0 011.42-1.42 1.77 1.77 0 012 1.42l.21 1.16A2.29 2.29 0 0034.52 27a11.22 11.22 0 017.76 10.17zM74 25.5a.77.77 0 01-.51-.58l-.21-1.15a3.3 3.3 0 00-2.45-2.61V0h-1.55v21.15a3.29 3.29 0 00-2.48 2.62l-.21 1.15a.77.77 0 01-.51.58 12.84 12.84 0 00-8.85 12.4v.36l.15.11.21.28H82.5l.11-.19.22-.2v-.36A12.84 12.84 0 0074 25.5zM58.77 37.13A11.22 11.22 0 0166.56 27a2.29 2.29 0 001.55-1.76l.21-1.15a1.76 1.76 0 013.46 0l.22 1.12A2.29 2.29 0 0073.57 27a11.22 11.22 0 017.76 10.17z"/><path class="cls-1" d="M66.48 36.11a.77.77 0 01-.77.77h-5a.77.77 0 010-1.53h5a.77.77 0 01.77.76zm5.36 0a.77.77 0 01-.77.77h-2.3a.77.77 0 010-1.53h2.3a.77.77 0 01.77.76z"/></svg>