<svg id="Шар_1" data-name="Шар 1" xmlns="http://www.w3.org/2000/svg" viewBox="0 0 112.83 105.96"><defs><style>.cls-1{fill:#2b2b2b}</style></defs><path class="cls-1" d="M32.87 87.09c0 10.41-7.34 18.91-16.35 18.91S.17 97.5.17 87.09A21.27 21.27 0 011.37 80a.56.56 0 010-.11.69.69 0 01.94-.25.68.68 0 01.3.81 20 20 0 00-1.11 6.61c0 9.65 6.71 17.5 15 17.5s15-7.85 15-17.5-6.71-17.5-15-17.5a14.18 14.18 0 00-11.37 6.18.69.69 0 01-.84.22l-.09-.06a.68.68 0 01-.18-1 15.52 15.52 0 0112.5-6.7c9.02 0 16.35 8.47 16.35 18.89z"/><path class="cls-1" d="M16.52 75.8c-5.41 0-9.81 5.06-9.81 11.28s4.4 11.28 9.81 11.28 9.81-5.06 9.81-11.28-4.4-11.28-9.81-11.28zm0 21.18c-4.65 0-8.43-4.44-8.43-9.9s3.78-9.9 8.43-9.9S25 81.62 25 87.08 21.17 97 16.52 97zM39 74.46v24.86h24.91V74.46zm23.53 23.48h-22.1v-22.1h22.1z"/><path class="cls-1" d="M57.68 81.36v11.05a.69.69 0 01-.69.69H45.94a.69.69 0 01-.69-.69V81.36a.69.69 0 01.69-.69h3.75a.69.69 0 01.52.83.71.71 0 01-.7.52h-2.62a.23.23 0 00-.23.23v9.21a.23.23 0 00.23.23h9.21a.23.23 0 00.23-.23v-9.19a.23.23 0 00-.23-.27h-1.38a.67.67 0 01-.68-.52 1.17 1.17 0 010-.13.7.7 0 01.67-.71H57a.69.69 0 01.68.72zm30.17-42.82v24.87h24.86V38.54zM111.34 62h-22.1V39.92h22.1z"/><path class="cls-1" d="M94.07 44.76v12.43h12.43V44.76zm1.38 11.05v-9.67h9.67v9.67zm16.08-50.54L108 1.72a4.41 4.41 0 00-3.14-1.3H95a4.41 4.41 0 00-3.14 1.3l-3.51 3.55A4.46 4.46 0 0087 8.43v19.48A4.39 4.39 0 0088.35 31l3.55 3.55A4.41 4.41 0 0095 35.9h9.82a4.38 4.38 0 003.18-1.31l3.53-3.59a4.41 4.41 0 001.3-3.14V8.43a4.46 4.46 0 00-1.3-3.16zm-.08 3.54v18.72a4 4 0 01-1.16 2.81l-3 3a4 4 0 01-2.81 1.16h-9.06a4 4 0 01-2.81-1.16l-3-3a4 4 0 01-1.16-2.81V8.81A4 4 0 0189.6 6l3-3a4 4 0 012.81-1.16h9.05A4 4 0 01107.28 3l3 3a4 4 0 011.17 2.81z"/><path class="cls-1" d="M99.93 9.46a6.44 6.44 0 00-6.43 6.43v4.55a6.45 6.45 0 006.44 6.43 6.45 6.45 0 006.42-6.43v-4.55a6.44 6.44 0 00-6.43-6.43zm5.07 6.43v4.55a5.05 5.05 0 01-10.1 0v-4.55a5.05 5.05 0 015.06-5h.14a5.07 5.07 0 014.9 5zm6.53 56.02l-.12-.06a1.56 1.56 0 00-.69-.16H71.08a1.57 1.57 0 00-.61.12 1.65 1.65 0 00-1 1.51V101a1.66 1.66 0 00.86 1.44l.15.22.13-.09a1.6 1.6 0 00.49.08h39.66a1.65 1.65 0 001.64-1.64V73.33a1.66 1.66 0 00-.87-1.42zm-1.85 1.17l-9.28 6.57a1.57 1.57 0 00-.59-.12H82a1.51 1.51 0 00-.5.09l-9.23-6.54zm-9.7 8v12.2a.17.17 0 01-.17.17H82a.17.17 0 01-.17-.17V81.07a.17.17 0 01.17-.17h17.82a.17.17 0 01.18.17zm-29.16 19.63v-27l9.68 6.86a1.53 1.53 0 00-.07.46v12.25a1.47 1.47 0 00.11.55zm1.6.56l9.18-6.5a1.47 1.47 0 00.38.05h17.85a1.52 1.52 0 00.48-.08l9.38 6.52zm38.58-.77l-9.7-6.75a1.57 1.57 0 00.07-.47V81.07a1.5 1.5 0 00-.05-.38l9.68-6.85zM70.45 71.8zm41.02.01h-.05l.12.06zM54.7 12.8l.08.07.06-.07zm-26.58-.01l.09.11.12-.11zm12.57 37.84l.31-.13m11.35-13.03h-.85a3.61 3.61 0 01.5 0z"/><path class="cls-1" d="M81.68 11.41H55.2L41.5 0l-.12.14-13.54 11.27H1.64A1.65 1.65 0 000 13.05v49.67a1.65 1.65 0 001.64 1.64h80a1.65 1.65 0 001.64-1.64V13a1.65 1.65 0 00-1.6-1.59zM41.53 1.82L53 11.41H30zm-13.2 11H81l-8.9 5.45a1.5 1.5 0 00-.83-.25H12a1.49 1.49 0 00-.78.22L2.7 12.79zm14 30.9a24.39 24.39 0 004.29-.77 4.45 4.45 0 01.38 1.62 4.59 4.59 0 01-4.52 4.58h-.06a4.58 4.58 0 01-4.57-4.52 4.51 4.51 0 01.29-1.68 27.49 27.49 0 004.21.74zM38.62 42a4.58 4.58 0 013.72-2 4.59 4.59 0 013.76 2 23.44 23.44 0 01-3.77.68 23.1 23.1 0 01-3.71-.68zm3.58 8.6a4.24 4.24 0 011.64.35V51a8.24 8.24 0 01-1.66 2.12 8.69 8.69 0 01-1.63-2.23l.21-.09a4.05 4.05 0 011.43-.22zm0 3.7c1 0 2.12-1.69 2.77-2.76a16.28 16.28 0 014.27 4.85h-14a16.59 16.59 0 014.36-4.88c.95 1.83 1.84 2.77 2.56 2.77zm1.7-4.3a5.61 5.61 0 00.91-10.48 4.49 4.49 0 00-.59-.25 5.56 5.56 0 00-1.74-.3 5.66 5.66 0 00-4.6 2.31 2.52 2.52 0 00-.16.23l-.16.25a2.94 2.94 0 00-.15.26 5.53 5.53 0 00-.63 2.5 5.64 5.64 0 003.9 5.42 9.08 9.08 0 00-3.91 2.52 20.63 20.63 0 00-2.93 3.92H12a.17.17 0 01-.17-.17V19.57a.17.17 0 01.17-.17h59.27a.17.17 0 01.17.17V56.2a.17.17 0 01-.17.17H50.5v-.06c-1.01-1.7-3.41-5.31-6.6-6.31zM1.38 62.34V13.59l9.12 5.8a1.08 1.08 0 000 .17V56.2a1.4 1.4 0 00.06.42zM3 63l8.53-5.32a1.53 1.53 0 00.52.09h59.22a1.51 1.51 0 00.69-.17l8.33 5.4zm79-.58l-9.15-5.93a1.28 1.28 0 000-.27V19.56a.89.89 0 000-.11l9.13-5.63z"/><path class="cls-1" d="M58.68 32.18h.08a1.69 1.69 0 001.12-1.72 8 8 0 00-16 0 1.84 1.84 0 00.94 1.78h.09a7 7 0 004.45 4.84 7.64 7.64 0 00-2.57 2.41.52.52 0 00-.08.41.53.53 0 00.24.34.54.54 0 00.72-.15 7.44 7.44 0 011.22-1.38c.67.93 2 2.58 3 2.58s2.37-1.58 3.14-2.59c1.93 1.67 3.25 4.87 3.25 8.54a24.73 24.73 0 01-.46 3.67.53.53 0 00.17.5.57.57 0 00.29.13h.19a.46.46 0 00.19-.08.5.5 0 00.17-.3 25.29 25.29 0 00.47-3.86c0-4.72-2.06-8.76-4.94-10.24a7 7 0 004.32-4.88zm-7-8.26h.23a7.14 7.14 0 015 2.05 6.27 6.27 0 011.86 4.48.66.66 0 01-.43.68 3.54 3.54 0 01-3-.93c-.15-.17-.11-.35 0-.64a1.17 1.17 0 00-.05-1.1 1.45 1.45 0 00-1.23-.41A3.15 3.15 0 0052 29l-.12.1a3.13 3.13 0 01-1.6.92 3.44 3.44 0 01-.93-.64c-.55-.46-1.18-1-1.75-.74a2.57 2.57 0 00-1.18 1.69 1.9 1.9 0 01-.31.69.79.79 0 01-.77.19.83.83 0 01-.33-.79 6.71 6.71 0 016.67-6.5zm.24 16.29c-.28 0-1.21-.91-2.12-2.14a4.4 4.4 0 011.7-.6 3.61 3.61 0 01.5 0h.35a4.34 4.34 0 011.86.6c-.9 1.17-1.92 2.15-2.29 2.15zm1.24-3.94a6 6 0 01-.69.12H52a4.91 4.91 0 00-.64 0 6.07 6.07 0 01-5.3-4.18 2.21 2.21 0 00.74-.41 2.54 2.54 0 00.63-1.15 2.84 2.84 0 01.49-1 3.6 3.6 0 01.78.56c.6.48 1.16.94 1.73.85a4.2 4.2 0 002.19-1.19 2.17 2.17 0 011.45-.76h.3v.06a1.58 1.58 0 00.23 1.7 4.85 4.85 0 003 1.35 6 6 0 01-4.43 4.06zM32.7 22.81A9.42 9.42 0 0023 32s.2 4.08 1.06 5a1.87 1.87 0 001.33.56h.38a4 4 0 001.53-.62 6.4 6.4 0 003 2.15c-3.18 1.51-5.48 5.92-5.48 11.1v.42a.53.53 0 00.13.35l.15.06.21.09a.62.62 0 00.26 0 .51.51 0 00.24-.45v-.4c0-4.05 1.48-7.58 3.64-9.36.68.93 2 2.54 3 2.54s2.38-1.57 3.23-2.69a7.31 7.31 0 011 .92.56.56 0 00.45.17.53.53 0 00.42-.27.53.53 0 000-.41.52.52 0 00-.1-.16 7.39 7.39 0 00-2.57-1.92A6.45 6.45 0 0037.51 37l.14.08a3.48 3.48 0 002.89-.25 3.18 3.18 0 001.78-2.21v-2.64.02a9.42 9.42 0 00-9.62-9.19zm-.18 19.45c-.28 0-1.18-.87-2.09-2.09a4.57 4.57 0 014.41-.12c-.9 1.2-1.95 2.21-2.32 2.21zm2.83-4.72a5.47 5.47 0 01-7.2-1.39 3.34 3.34 0 00.31-.4 5.72 5.72 0 00.1-2.86 8.34 8.34 0 01-.06-2.15 7 7 0 011.92.31 8.47 8.47 0 002.18.31 1.37 1.37 0 001.08-.62 2.23 2.23 0 00-.23-1.92 4.62 4.62 0 01-.24-.64h.06c1.15 0 2.21 1.28 2.69 3.26a13.12 13.12 0 01.25 1.9 9.94 9.94 0 00.38 2.42 4 4 0 00.22.49 5.55 5.55 0 01-1.46 1.29zm6-5.52v2.46a2.18 2.18 0 01-1.22 1.45 2.46 2.46 0 01-2 .21.77.77 0 01-.15-.15 1.36 1.36 0 01-.29-.53 8.83 8.83 0 01-.33-2.14A13.24 13.24 0 0037 31.2a6.84 6.84 0 00-1.47-3 3.06 3.06 0 00-2.23-1.11 1.11 1.11 0 00-1 .43c-.32.47-.07 1.07.18 1.68a2.73 2.73 0 01.29 1 .37.37 0 01-.25.11 8.43 8.43 0 01-1.8-.31h-.09c-1.44-.31-2.11-.42-2.54-.25-.89.37-.76 1.79-.6 3.3a6.77 6.77 0 010 2.16 3 3 0 01-1.89 1.2.86.86 0 01-.77-.23c-.38-.39-.76-3.32-.76-4.23a8.37 8.37 0 018.59-8.1A8.44 8.44 0 0141.33 32z"/></svg>