<svg width="21" height="20" fill="none" xmlns="http://www.w3.org/2000/svg"><path d="M20.613 5.903a7.24 7.24 0 00-.464-2.457 5.112 5.112 0 00-2.92-2.92 7.325 7.325 0 00-2.423-.465C13.739.013 13.4 0 10.693 0 7.986 0 7.64 0 6.58.061a7.324 7.324 0 00-2.423.466 5.108 5.108 0 00-2.92 2.92 7.267 7.267 0 00-.464 2.422C.725 6.936.711 7.275.711 9.982c0 2.708 0 3.054.062 4.114.017.83.173 1.647.465 2.425a5.111 5.111 0 002.92 2.918 7.3 7.3 0 002.423.499c1.068.048 1.406.062 4.113.062 2.708 0 3.055 0 4.114-.062a7.305 7.305 0 002.424-.465 5.115 5.115 0 002.919-2.92 7.301 7.301 0 00.465-2.424c.047-1.067.062-1.405.062-4.114-.003-2.707-.003-3.05-.065-4.112zm-9.926 9.2A5.125 5.125 0 015.56 9.977a5.125 5.125 0 1110.251 0 5.126 5.126 0 01-5.125 5.126zm5.33-9.246a1.194 1.194 0 01-.458-2.3 1.195 1.195 0 11.457 2.3z" fill="#EEEDEB"/><path d="M10.693 13.312a3.33 3.33 0 100-6.66 3.33 3.33 0 000 6.66z" fill="#EEEDEB"/></svg>