<svg width="1920" height="985" fill="none" xmlns="http://www.w3.org/2000/svg"><path d="M1536.87 1520.34c27.04-59.42 64.88-117.87 132.54-132.05 32.74-6.92 69.36.72 100.04-16.13 37.23-20.49 26.92-45.11 32.62-79.79 5.7-34.93 29.71-39.17 42.57-69 14.06-32.5-1.7-66.69-23.29-91.19-14.43-16.37-43.65-30.19-42.44-56.39 1.7-37.1 45.84-28.61 56.87-56.87 19.41-49.472-74.45-130.96-109.5-156.547-50.44-36.742-125.02-45.958-168.06-91.067-65-68.271 51.29-84.156 98.82-97.373 78.58-21.706 157.64-31.529 238.28-41.472" stroke="#D1D2D4" stroke-opacity=".5" stroke-miterlimit="10"/><path d="M1909.15 923.49c-31.53-25.101-63.18-50.324-97.37-71.787-29.23-18.311-71.55-30.194-86.46-64.027-35.78-80.881 140.54-65.238 183.83-65.481m.72 127.082c-17.46-14.188-76.39-61.601-12.61-57.357m3.04-710.353c-20.13 64.027-79.79 112.774-84.65 182.136-4.6 67.179 63.79 126.233 106.35 170.13" stroke="#D1D2D4" stroke-opacity=".5" stroke-miterlimit="10"/><path d="M1891.69-14.593c-7.89 50.203-16.37 101.132-40.38 146.606-18.8 35.529-48.51 65.117-64.03 102.466-37.47 90.461 22.55 154.609 62.93 228.579 49.96 91.431-44.62 117.624-116.41 140.3-92.28 29.345-188.07 48.262-284.6 56.144-42.2 3.395-87.79 2.425-130.35.121-46.81-2.546-69.97-11.035-107.69-27.163-71.3-30.315-129.14-156.064-99.55-231.246 63.42-161.4 287.15-244.706 291.75-433.269" stroke="#D1D2D4" stroke-opacity=".5" stroke-width="1.25" stroke-miterlimit="10"/><path d="M1861.49-17.382c-23.28 73.242-81.49 130.72-115.92 198.627-43.42 85.732-21.35 154.366-11.89 244.464 18.31 174.86-188.32 211.845-323.77 193.534-64.63-8.731-168.19-27.041-214.15-77.729-57.6-63.541-24.73-144.18 16.01-206.751 39.05-59.904 103.44-93.372 149.64-146.606 50.44-58.084 82.46-132.418 89.61-209.055" stroke="#D1D2D4" stroke-opacity=".5" stroke-miterlimit="10"/><path d="M1780-16.655c-13.33 31.892-47.29 51.294-65.6 80.276-18.43 29.103-27.04 62.813-33.22 96.282-13.34 72.636-14.43 142.725-4.01 215.725 11.4 79.426 12.49 140.057-64.63 182.256-59.78 32.62-133.63 47.171-199.72 26.799-34.56-10.671-72.75-26.556-102.1-46.443-27.4-18.553-44.62-36.379-63.78-64.633-43.05-63.177-17.83-125.991 32.98-174.011 53.72-50.687 114.96-89.127 164.43-144.908C1500.86 91.026 1504.5 38.035 1486.43-46" stroke="#D1D2D4" stroke-opacity=".5" stroke-miterlimit="10"/><path d="M1693.06-13.503c-67.79 111.44-60.63 254.286-62.33 381.733-1.45 105.012-42.68 225.911-182.74 191.351-44.87-11.035-86.1-40.502-109.5-80.518-36.26-62.207-4.73-104.043 33.71-154.366 40.14-52.385 90.1-98.222 129.27-150.608 36.86-49.232 33.22-129.143 33.46-188.44" stroke="#D1D2D4" stroke-opacity=".5" stroke-miterlimit="10"/><path d="M1590.59 204.892c32.5 77.243 9.95 185.167-23.76 257.439-43.42 93.129-123.81 81.124-170.01-3.274-22.19-40.502-29.83-72.03-6.07-111.804 23.29-39.046 60.27-50.687 90.95-80.76 26.56-25.829 72.39-148.425 108.89-61.601z" stroke="#D1D2D4" stroke-opacity=".5" stroke-width=".75" stroke-miterlimit="10"/><path d="M1563.43 221.018c43.53 16.007 6.67 161.4-2.31 189.533-15.76 49.596-71.54 117.381-115.32 54.567-34.19-48.989-61.11-100.404-9.94-144.059 20.37-17.461 45.6-25.343 64.39-45.837 14.07-15.279 33.23-65.239 63.18-54.204z" stroke="#D1D2D4" stroke-opacity=".5" stroke-width=".75" stroke-miterlimit="10"/><path d="M1541.12 391.27c-13.46 37.955-46.32 87.551-85.98 46.079-35.16-36.863-25.95-78.335 8.73-106.589 15.53-12.49 34.08-18.553 48.15-33.711 9.57-10.307 15.52-37.591 33.95-35.044 31.65 4.486 1.33 111.924-4.85 129.265z" stroke="#D1D2D4" stroke-opacity=".5" stroke-width=".75" stroke-miterlimit="10"/><path d="M1523.05 346.161c8.12 19.402-32.38 94.827-57.48 58.448-24.98-36.136 42.81-93.614 57.48-58.448zM1655.1-18.594c2.91 10.55-29.46 85.61-37.47 96.888-19.64 27.769-43.29 24.859-55.53-1.213-10.92-23.282-1.22-81.367 17.82-99.798 15.77-15.4 68.52-29.103 75.18 4.123z" stroke="#D1D2D4" stroke-opacity=".5" stroke-width=".75" stroke-miterlimit="10"/><path d="M1620.91 12.206c-1.82 30.679-29.11 65.481-36.14 17.825-5.7-38.319 37.71-43.897 36.14-17.825z" stroke="#D1D2D4" stroke-opacity=".5" stroke-width=".75" stroke-miterlimit="10"/><path d="M1318.72-19.808c.61 49.96 8.73 93.372-29.83 129.265-33.83 31.407-77.85 44.746-113.14 73.121-33.22 26.678-66.69 63.42-88.88 99.799-7.88 12.854-42.32 80.882-71.18 45.594-24.739-30.315 33.83-69.361 50.81-81.245 35.89-25.101 56.87-55.053 82.21-90.098 22.44-31.164 46.93-55.295 66.7-89.006 8-13.581 20.98-24.859 28.37-37.834 11.89-20.735 4.97-32.862 9.34-55.174m-78.09 4.488c-4.98 15.157-16.62 26.435-23.29 40.622-9.82 20.736-10.91 43.897-22.55 63.784-19.4 33.226-56.99 57.478-83.79 84.277-28.86 28.739-70.577 65.36-85.735 104.649-7.397 19.159 1.94 87.43-18.553 96.282-33.105 14.188-25.101-71.787-20.857-85.611 10.307-34.074 24.373-73.363 42.563-103.8 21.342-35.772 55.412-50.324 84.882-77.85 38.32-36.015 43.9-73.242 64.27-118.352m-55.17-4.971c11.76 27.648-53.36 115.199-78.821 119.322-51.415 8.245-119.807-75.062-142.362-113.865m164.913-1.579c-34.558 71.424-71.785 48.263-111.559.122M773.893-23.81c29.709 36.258 57.842 73.849 85.611 111.804 19.402 26.435 45.473 51.657 44.746 85.732-1.819 82.094-68.392 111.318-139.209 109.378-52.142-1.455-144.301-61.237-141.755-119.806 1.698-39.532 32.377-60.389 58.57-84.52 30.679-28.133 40.259-58.085 46.807-98.465" stroke="#D1D2D4" stroke-opacity=".5" stroke-miterlimit="10"/><path d="M805.666 72.958c28.012 16.491 27.89 93.371 22.191 120.898-9.458 44.867-68.877 67.058-100.284 32.134-11.034-12.368-28.254-57.235-26.556-73.848 2.304-22.919 9.822-18.19 24.495-36.136 24.859-30.195 32.377-71.302 80.154-43.048z" stroke="#D1D2D4" stroke-opacity=".5" stroke-width=".75" stroke-miterlimit="10"/><path d="M797.538 114.794c14.309 25.465 2.911 108.529-41.107 86.823-60.51-29.709 21.948-120.898 41.107-86.823z" stroke="#D1D2D4" stroke-opacity=".5" stroke-width=".75" stroke-miterlimit="10"/><path d="M778.745 167.299c6.063-14.794-34.924-14.43-20.494 7.761 9.823 15.157 20.251 6.79 20.494-7.761z" stroke="#D1D2D4" stroke-opacity=".5" stroke-width=".75" stroke-miterlimit="10"/><path d="M1424.71 1513.43c59.41-75.67 133.99-120.54 219.6-160.55 38.68-18.07 51.78-33.47 57.84-75.19 6.07-41.35 31.17-55.78 45.36-91.79 28.98-74.09-118.48-57.72-51.3-139.94 24.5-29.95 47.54-51.048 37.11-93.368-11.52-46.929-54.08-72.757-94.46-92.402-83.92-40.865-175.59-76.637-268.72-87.187-84.88-9.701-180.44-3.395-241.8-74.212-53.96-62.329-63.66-150.729-116.05-214.391-55.412-67.543-140.295-100.405-219.479-130.842-93.736-36.015-197.051-76.395-247.253-170.252-20.978-39.046-39.531-95.069.606-124.293 28.375-20.736 78.335-20.25 85.732-63.541" stroke="#D1D2D4" stroke-opacity=".5" stroke-width="1.25" stroke-miterlimit="10"/><path d="M1361.65 1510.76c46.81-19.04 87.19-53.6 113.74-96.52 27.17-43.78 29.95-90.71 81.25-113.26 49.59-21.83 75.3-38.2 57.72-98.23-13.7-46.56-27.65-111.68-23.04-161.03 8.85-93.615 1.45-124.779-179.71-167.464-96.77-22.797-204.08-8.003-291.76-63.056-155.819-97.979-145.511-323.041-334.922-391.191-91.311-32.862-206.509-15.642-270.051-100.768-70.21-94.099-120.413-211.845-162.248-320.86" stroke="#D1D2D4" stroke-opacity=".5" stroke-width=".75" stroke-miterlimit="10"/><path d="M555.015-11.683c-14.43 31.043-57.842 38.804-88.4 34.923-32.135-4.123-35.409-14.309-53.234-43.048m404.53 1537.478c21.585-32.62 105.62-30.43 138.482-33.47 55.777-5.09 112.047-6.3 167.947-3.63 54.93 2.66 108.29 14.31 162.85 18.79 59.79 4.97 82.83-28.62 110.35-77.12 20.98-36.99 30.32-84.16 55.42-118.23 20.74-28.25 63.06-32.38 80.4-61.48 20.49-34.44-13.34-72.64-12.01-108.65 2.18-53.84 30.8-88.04-8.97-136.906-55.18-67.785-179.95-76.516-258.65-96.767-84.16-21.706-173.89-45.837-232.58-114.592-56.027-65.482-73.973-153.881-125.146-222.516-54.568-73.363-135.328-92.037-220.575-108.529-101.254-19.523-186.258-49.354-251.497-133.752-73-94.463-97.859-214.391-121.141-328.74" stroke="#D1D2D4" stroke-opacity=".5" stroke-miterlimit="10"/><path d="M661.604 1515.37c65.117-59.78 179.225-54.33 261.319-63.18 84.517-9.09 197.297-2.3 275.507-39.41 41.84-19.89 44.26-49.23 59.3-87.92 17.34-44.74 49.11-66.33 86.94-93.12 82.82-58.57 109.62-123.09 32.38-202.39-27.65-28.38-57.84-60.025-95.31-74.576-43.17-16.856-92.4-12.369-136.79-26.193-76.63-23.888-176.796-72.272-226.635-137.026-47.413-61.601-39.774-151.456-94.463-207.843-59.297-60.994-163.461-48.99-238.765-78.092C365.482 420.736 308.61 195.432 233.307-4.65" stroke="#D1D2D4" stroke-opacity=".5" stroke-miterlimit="10"/><path d="M454.367 1512.94c40.744-70.57 128.901-81.85 202.265-87.06 104.891-7.4 206.023-22.68 308.49-46.69 28.375-6.67 100.648-10.43 120.048-34.32 20.86-25.7.24-49.84-.36-77.97-1.82-80.88 85.97-48.99 121.87-100.89 50.56-73-42.45-130.48-95.32-157.4-34.19-17.457-65.84-37.587-93.37-64.871-24.372-24.252-46.078-71.302-78.576-85.126-74.455-31.77 43.048 111.44 57.963 126.355 56.143 55.902 165.163 112.892 57.353 179.102-72.025 44.26-45.35 58.09-43.29 129.15.97 31.16-2.54 29.58-34.798 36.37-44.382 9.34-88.643 17.59-132.418 29.59-39.895 10.92-55.296 19.04-94.948 30.56-24.98 7.28-51.779 2.55-22.434-34.56 38.198-48.14 106.711-47.9 162.491-52.63 37.349-3.15 72.393 2.55 71.545-46.2-.728-43.89-26.921-67.78 7.275-105.74 47.297-52.38 90.947-71.06 23.889-138.24-64.633-64.75-112.046-131.202-152.548-213.781-39.773-81.246-66.451-177.043-158.368-212.209-93.007-35.651-185.409-57.114-269.322-114.349-72.757-49.475-134.843-117.988-166.008-201.295-33.589-89.613-2.668-192.685-44.624-278.539" stroke="#D1D2D4" stroke-opacity=".5" stroke-miterlimit="10"/><path d="M383.673 1486.99c5.821-47.77 18.19-75.66 64.027-92.16 48.626-17.58 103.8-25.46 153.881-37.71 103.679-25.34 152.669-54.32 212.087-144.42 22.433-34.08 45.837-63.54 76.152-91.07 33.105-30.07 54.932-58.81 39.653-104.65-30.679-92.158-149.758-107.437-184.075-198.383-16.128-42.684-15.764-90.34-30.68-133.631-19.038-55.052-56.023-65.723-107.68-84.762-72.879-26.798-148.546-48.019-217.059-85.247C191.11 406.792 218.757 175.182 144.545-9.258" stroke="#D1D2D4" stroke-opacity=".5" stroke-width="1.25" stroke-miterlimit="10"/><path d="M768.194 1129.76c-19.887 10.91-43.291 25.22-52.628 47.17-8.731 20.37 1.698 44.26-6.79 64.02-16.371 38.2-104.286 72.64-140.664 90.34-16.249 8.01-48.262 20.5-65.967 6.43-17.583-13.95-4.001-33.71 10.671-47.05 33.711-30.8 93.493-31.29 131.085-62.21 18.674-15.4 34.923-32.74 36.136-57.96 1.091-23.16-19.402-43.29-9.944-66.33 16.613-40.87 66.937-34.8 76.031-88.64 4.366-25.954-6.427-42.809 28.254-37.473 21.706 3.274 42.806 25.223 51.173 44.383 18.553 42.56-20.251 87.19-57.357 107.32zM647.902 690.666c-28.982-55.781-139.815-96.403-198.384-109.5-32.499-7.275-65.846 3.759-39.411 40.502 20.372 28.254 83.186 27.526 112.531 41.229 42.927 20.008 75.547 55.295 102.103 93.735 9.822 14.309 47.898 103.194 70.938 88.279 32.135-20.857-36.621-132.782-47.777-154.245z" stroke="#D1D2D4" stroke-opacity=".5" stroke-miterlimit="10"/><path d="M321.95 1509.79c-65.36-79.79 36.864-119.32 85.975-153.03 37.712-25.95 23.767-50.45 43.775-84.76 21.949-37.72 73.242-22.32 106.832-42.81 39.774-24.37 30.558-49.72 13.824-82.22-23.04-44.86-31.286-48.5 20.736-70.57 82.458-35.17 80.033-127.325 50.445-199.354-30.073-73.242-74.94-115.078-140.422-159.338-35.651-24.131-64.39-24.98-105.498-37.713-36.984-11.398-90.218-56.387-113.622-89.734-28.011-40.016-41.714-101.738-57.842-147.333-15.643-44.139-30.558-88.4-44.745-133.024-33.226-104.043-62.693-209.177-88.28-315.281" stroke="#D1D2D4" stroke-opacity=".5" stroke-miterlimit="10"/><path d="M269.202 1514.03c-11.277-40.62-28.982-79.66-52.264-114.95-19.887-30.07-61.116-61.48-47.656-101.01 11.156-32.74 43.412-51.05 52.628-87.19 9.579-37.59-2.668-66.33-10.671-102.47-8.974-40.5-16.128-71.9 31.649-85.49 28.618-8.12 59.297.13 87.915 4.13 69.362 9.58 135.449-10.92 131.205-94.709-3.516-71.181-66.087-145.514-104.77-202.022-45.958-67.058-109.257-113.623-160.429-175.709C83.065 416.129 56.629 230.841 54.569 57.315" stroke="#D1D2D4" stroke-opacity=".5" stroke-miterlimit="10"/><path d="M120.292 1514.16c-16.734-59.06-72.393-102.96-96.282-160.43-24.131-58.21-19.402-82.7 27.284-120.66 52.143-42.56 39.531-81.25-.849-125.99-36.621-40.38-64.269-101.98-41.471-156.55 39.53-94.705 217.422-21.827 212.935-153.76-2.061-59.418-52.263-103.679-89.733-144.301-43.655-47.414-89.128-98.344-103.073-163.219m308.611 844.59c60.994-8.37 19.765-71.18 49.596-104.29 29.952-33.22 116.654-28.13 108.529-89.85-2.668-20.13-20.857-28.5-17.946-51.05 3.031-23.77 26.071-35.05 41.35-49.96 15.279-15.16 37.348-33.59 32.013-58.45-6.063-28.618-19.523-22.434-37.349-9.095-48.141 36.135-52.506 100.285-121.383 111.075-56.023 8.85-101.981-20.86-107.317 53.84-3.88 54.69 11.278 104.53-8.124 157.76-21.827 60.15 12.247 46.69 60.631 40.02zm161.765-495.477c-32.862-20.129-47.292-44.503-43.533-73.363 17.461-27.89 103.679 48.383 90.704 75.546-7.882 16.613-38.683 3.395-47.171-2.183z" stroke="#D1D2D4" stroke-opacity=".5" stroke-miterlimit="10"/></svg>