<svg width="129" height="50" fill="none" xmlns="http://www.w3.org/2000/svg"><g clip-path="url(#clip0)" fill="#000"><path d="M1.427 47.419c-.475-.272-.815-.612-1.02-1.087C.137 45.924 0 45.38 0 44.837a3.155 3.155 0 011.427-2.65 2.911 2.911 0 011.496-.407c.543 0 1.087.136 1.495.408.476.272.816.611 1.02 1.087.271.475.407.95.407 1.562 0 .612-.136 1.087-.407 1.563a3.145 3.145 0 01-1.02 1.087 2.912 2.912 0 01-1.495.407c-.544-.067-1.02-.203-1.496-.475zm2.72-.408c.339-.204.61-.475.815-.883.204-.407.34-.815.34-1.29 0-.476-.136-.884-.34-1.291a2.065 2.065 0 00-.816-.884 2.348 2.348 0 00-1.223-.34c-.476 0-.884.137-1.224.34-.34.204-.611.476-.815.884-.204.407-.34.815-.34 1.29 0 .476.136.883.34 1.291.204.408.475.68.815.883.34.204.748.34 1.224.34.475 0 .883-.136 1.223-.34zm10.33-4.551c.408.407.612 1.018.612 1.833v3.397h-.544v-3.397c0-.679-.136-1.155-.475-1.494-.34-.34-.816-.544-1.428-.544-.68 0-1.223.204-1.631.612-.408.407-.612.95-.612 1.698v3.125h-.544v-5.842h.544v1.29c.204-.407.476-.747.884-.95.408-.205.883-.34 1.427-.34.748 0 1.36.203 1.767.611zm5.233-3.058h.545v8.356h-.544v-8.356zm9.857 2.514l-2.99 6.658c-.205.543-.476.883-.816 1.087a1.84 1.84 0 01-1.02.34c-.272 0-.543-.069-.747-.137-.204-.068-.408-.203-.612-.407l.272-.408c.272.34.68.476 1.087.476.272 0 .544-.068.748-.204.204-.136.408-.408.544-.815l.34-.68-2.651-5.842h.611l2.38 5.23 2.378-5.23h.476v-.068zm17.06 0l-2.243 5.842h-.544l-1.97-5.095-1.972 5.095h-.544l-2.243-5.842h.544l1.971 5.231 1.971-5.231h.544l1.971 5.231 1.971-5.231h.544zm4.146 5.502c-.476-.271-.816-.611-1.02-1.087a2.976 2.976 0 01-.407-1.562c0-.611.136-1.087.408-1.563a3.145 3.145 0 011.02-1.087 2.912 2.912 0 011.494-.407c.544 0 1.088.136 1.496.407.475.272.815.612 1.02 1.087.271.476.407.952.407 1.563s-.136 1.087-.408 1.563a3.145 3.145 0 01-1.02 1.086 2.91 2.91 0 01-1.495.408 2.91 2.91 0 01-1.495-.408zm2.719-.407a2.07 2.07 0 00.816-.883c.203-.408.34-.816.34-1.291 0-.476-.137-.883-.34-1.29a2.065 2.065 0 00-.816-.884 2.348 2.348 0 00-1.224-.34c-.475 0-.883.136-1.223.34a2.07 2.07 0 00-.816.883c-.204.408-.34.815-.34 1.29 0 .477.136.884.34 1.292.204.407.476.679.816.883.34.204.748.34 1.223.34.476-.068.884-.136 1.224-.34zm6.525.407c-.476-.271-.815-.611-1.02-1.087a2.976 2.976 0 01-.407-1.562c0-.611.136-1.087.408-1.563a3.145 3.145 0 011.02-1.087 2.912 2.912 0 011.495-.407c.543 0 1.087.136 1.495.407.476.272.816.612 1.02 1.087.271.476.407.952.407 1.563s-.136 1.087-.408 1.563a3.146 3.146 0 01-1.02 1.086 2.911 2.911 0 01-1.494.408c-.544 0-1.02-.136-1.496-.408zm2.719-.407a2.07 2.07 0 00.816-.883c.203-.408.34-.816.34-1.291 0-.476-.137-.883-.34-1.29a2.065 2.065 0 00-.816-.884 2.348 2.348 0 00-1.223-.34c-.476 0-.884.136-1.224.34a2.07 2.07 0 00-.816.883c-.203.408-.34.815-.34 1.29 0 .477.136.884.34 1.292.204.407.476.679.816.883.34.204.748.34 1.224.34.475-.068.883-.136 1.223-.34zm10.944-7.609v8.356h-.544V46.4c-.204.475-.544.815-.952 1.087-.408.271-.884.34-1.427.34-.544 0-1.02-.137-1.496-.408-.475-.272-.815-.612-1.02-1.087a2.976 2.976 0 01-.407-1.563c0-.611.136-1.087.408-1.562a3.146 3.146 0 011.02-1.087 2.912 2.912 0 011.495-.408c.543 0 1.02.136 1.427.34.408.272.748.611.952 1.019v-3.669h.543zm-1.7 7.609a2.07 2.07 0 00.816-.883c.204-.408.34-.815.34-1.29 0-.476-.136-.884-.34-1.292a2.065 2.065 0 00-.816-.883 2.348 2.348 0 00-1.223-.34c-.476 0-.884.136-1.224.34-.34.204-.612.476-.815.883-.204.408-.34.816-.34 1.291 0 .476.136.883.34 1.29.203.408.475.68.815.884.34.204.748.34 1.224.34.475 0 .815-.136 1.223-.34zM23.993 18.003c1.768 1.426 2.651 3.193 2.651 5.163 0 2.717-1.087 4.823-3.194 6.318-2.107 1.494-5.098 2.241-8.904 2.241H0v-.883c.952-.068 1.631-.203 2.107-.34.476-.203.748-.543.952-1.018.136-.476.204-1.291.204-2.378V5.366c0-1.086-.068-1.901-.204-2.377-.204-.611-.476-.951-.952-1.155C1.631 1.698.952 1.562 0 1.494V.611L13.526.68c3.534 0 6.185.612 8.088 1.902 1.835 1.223 2.787 2.922 2.787 5.028 0 1.698-.747 3.26-2.243 4.687-1.495 1.495-3.67 2.446-6.525 2.99v.067c3.806.272 6.593 1.155 8.36 2.65zM11.215 1.834c-.34.204-.612.544-.748 1.087-.136.544-.204 1.29-.204 2.378v9.918h1.904c1.903 0 3.262-.679 4.01-1.97.747-1.29 1.155-3.057 1.155-5.23 0-2.175-.34-3.805-1.02-4.892-.679-1.087-1.767-1.63-3.262-1.63-.883 0-1.427.135-1.835.34zm8.156 21.128c0-2.31-.611-4.076-1.767-5.231-1.155-1.223-2.99-1.766-5.505-1.766h-1.836v11.073c0 1.087.068 1.834.204 2.31.136.475.408.815.884 1.019.408.204 1.087.271 1.971.271 4.01 0 6.05-2.513 6.05-7.676zm33.577-21.06c2.311 1.223 4.146 3.057 5.438 5.435 1.291 2.378 1.903 5.23 1.903 8.56 0 3.193-.68 6.046-1.971 8.56-1.292 2.513-3.127 4.415-5.506 5.774-2.379 1.359-5.03 2.038-8.088 2.038-3.127 0-5.846-.611-8.157-1.902-2.31-1.223-4.146-3.057-5.437-5.435-1.292-2.378-1.903-5.23-1.903-8.56 0-3.193.68-6.046 1.97-8.56 1.292-2.513 3.127-4.415 5.506-5.774C39.083.679 41.733 0 44.792 0c3.126 0 5.845.611 8.156 1.902zm-12.574.815c-1.224 1.291-2.175 3.125-2.855 5.435-.68 2.31-.952 5.027-.952 8.017 0 3.056.34 5.706 1.088 8.016.748 2.31 1.767 4.076 3.058 5.367 1.292 1.223 2.72 1.902 4.215 1.902 1.63 0 3.058-.68 4.282-1.97 1.223-1.291 2.175-3.125 2.854-5.435.68-2.31.952-5.027.952-8.016 0-3.058-.34-5.707-1.088-8.017-.747-2.31-1.767-4.076-3.058-5.367C47.578 1.427 46.15.747 44.656.747c-1.632.068-3.059.68-4.282 1.97zm37.52 11.686c.68.611 1.02 1.426 1.02 2.513s-.34 1.902-1.02 2.514c-.68.611-1.564.883-2.72.883-1.155 0-2.038-.272-2.718-.883-.68-.612-1.02-1.427-1.02-2.514 0-1.087.34-1.902 1.02-2.513.68-.612 1.563-.883 2.719-.883 1.155 0 2.039.271 2.719.883zm7.68 32.472c1.224-.136 2.243-.476 3.059-1.087.816-.611 1.427-1.563 1.835-2.99.408-1.358.612-3.26.612-5.706V5.3c0-1.087-.068-1.902-.272-2.378-.136-.475-.476-.815-.952-1.019-.475-.204-1.155-.272-2.107-.34v-.95h13.594v.882c-.951.068-1.7.204-2.175.34-.476.204-.748.544-.883 1.02-.136.475-.204 1.29-.204 2.377v26.563c0 4.143-.272 6.997-.748 8.763-.612 2.174-1.903 3.872-3.942 5.163-2.04 1.29-4.622 1.97-7.817 1.97v-.815zm43.229-15.218H104.47v-.883c.951-.068 1.631-.203 2.107-.34.476-.203.747-.543.951-1.018.136-.476.204-1.291.204-2.378V5.298c0-1.086-.068-1.901-.204-2.377-.136-.475-.475-.815-.951-1.019-.476-.204-1.156-.272-2.107-.34v-.95h23.449a77.735 77.735 0 00-.272 6.453c0 1.29.068 2.31.136 2.99h-1.019c-.476-3.126-1.224-5.3-2.379-6.59-1.156-1.223-2.719-1.903-4.826-1.903h-1.767c-.884 0-1.564.068-1.971.204-.408.136-.68.408-.816.883-.136.408-.204 1.087-.204 2.038v10.87h1.36c1.563 0 2.718-.543 3.534-1.698.816-1.155 1.359-2.514 1.699-4.076h1.02a72.184 72.184 0 00-.136 4.144v2.105c0 1.495.068 3.533.272 6.25h-1.02c-.612-3.872-2.379-5.774-5.369-5.774h-1.36v11.073c0 .951.068 1.63.204 2.038.136.408.408.68.816.884.407.136 1.087.203 1.971.203h2.175c2.039 0 3.738-.679 5.03-2.105 1.291-1.427 2.175-3.805 2.718-7.202h1.02a50.39 50.39 0 00-.136 3.669c-.068 2.65 0 4.823.204 6.59z"/></g><defs><clipPath id="clip0"><path fill="#fff" d="M0 0h128.803v50H0z"/></clipPath></defs></svg>