<svg id="Шар_1" data-name="Шар 1" xmlns="http://www.w3.org/2000/svg" viewBox="0 0 100 100"><defs><style>.cls-1{fill:#242d36}</style></defs><path class="cls-1" d="M90 60.79H11.2a4.77 4.77 0 00-.8.1c-4.92 1-8.66 9-8.66 18.87 0 10.67 4.25 19.56 9.49 19.8H90v-.06c5.06-.64 9.07-9.07 9.07-19.34S95.05 61.43 90 60.79zM11.24 97.87c-4.24-.19-7.86-8.5-7.86-18.15 0-9.2 3.42-16.87 7.66-17.31h74.42c-3.4 3-5.78 9.83-5.78 17.74s2.38 14.72 5.78 17.74zM90 97.81a3.08 3.08 0 01-.62.06h-.79c-4.08-.91-7.25-8.57-7.25-17.64s3.18-16.72 7.27-17.64h1.1c4.25.39 7.71 8.34 7.71 17.74 0 8.97-3.34 16.76-7.42 17.48zm-.62-37.06h-.44.87zm-.59 37.06h-.17.23zm-4.62-62.65a2.84 2.84 0 00-.23.46 2.54 2.54 0 01.23-.46zm4.59 10.47a7.66 7.66 0 01-1.23 0 8.74 8.74 0 001.23 0z"/><path class="cls-1" d="M96.74 42.24a11.57 11.57 0 01-7.86 4.2 9.5 9.5 0 01-10.35-8.51 7.77 7.77 0 017-8.47 6.38 6.38 0 017 5.73 5.28 5.28 0 01-4.72 5.75 4.39 4.39 0 01-4.8-3.9 3.66 3.66 0 013.28-4 .82.82 0 01.72 1.34.84.84 0 01-.56.3 2 2 0 00-1.81 2.19 2.72 2.72 0 003 2.44 3.62 3.62 0 003.24-3.94 4.74 4.74 0 00-5.16-4.24 6.13 6.13 0 00-5.47 6.64 7.83 7.83 0 008.55 7.05 10 10 0 009-10.93 12.74 12.74 0 00-13.99-11.42A16.1 16.1 0 0069.37 40a20.33 20.33 0 0022.2 18.28.83.83 0 01.9.74.81.81 0 01-.18.61.84.84 0 01-.56.3c-.78.07-1.49.1-2.19.1a21.9 21.9 0 01-21.82-19.82 17.76 17.76 0 0115.92-19.38 14.38 14.38 0 0115.69 12.88 11.57 11.57 0 01-2.59 8.53zm-8.01 20.22h.18zm.2 0zm.89-1.66H90zm-.3 37.07h-.28.14a3.08 3.08 0 00.62-.06zM11.84 60.75h-.64a4.77 4.77 0 00-.8.1v-.12zm0 1.65zm66.61-50.32c0 5.46-6.29 9.9-14 9.9a.82.82 0 110-1.65c6.82 0 12.37-3.7 12.37-8.25a.82.82 0 011.65 0zM63.19 29a.82.82 0 01-1.65 0 6.82 6.82 0 00-7-6.6.82.82 0 110-1.65A8.47 8.47 0 0163.19 29zM15.34 54.15a.83.83 0 01-.82.82h-4.13a.82.82 0 110-1.65h4.12a.83.83 0 01.83.83zm22.66 0a.83.83 0 01-.82.82H19.47a.82.82 0 010-1.65H37.2a.83.83 0 01.8.83zm2.09 4.54a.83.83 0 01-.82.82H28.13a.82.82 0 010-1.65h11.14a.83.83 0 01.82.83zm-17.32-.83a.83.83 0 01-.82.82h-6.19a.82.82 0 110-1.65h6.19a.83.83 0 01.82.83zm18.56 22.27a.83.83 0 01-.82.82H21.94a.82.82 0 010-1.65H40.5a.83.83 0 01.83.83zm36.67 0a.83.83 0 01-.82.82h-7.39a.82.82 0 010-1.65h7.42a.83.83 0 01.79.83zm-4.09 9.49a.83.83 0 01-.82.82H43.8a.82.82 0 110-1.65h29.29a.83.83 0 01.82.83zm-35.06 0a.83.83 0 01-.82.82h-3.71a.82.82 0 010-1.65H38a.83.83 0 01.85.83zm-6.18-20.21a.83.83 0 01-.82.82H6.27a.82.82 0 010-1.65h25.57a.83.83 0 01.83.83zm41.24 3.71a.83.83 0 01-.82.82H53.7a.82.82 0 110-1.65h19.39a.83.83 0 01.82.83zM27 32.34a2.48 2.48 0 00.7 1.32l2.24 2.24a2.51 2.51 0 001 .63l-.74.74a2 2 0 000 2.82l1.34 1.34A2 2 0 0033 42a2 2 0 001.29-.47 5.77 5.77 0 001.34 4l10.66 13.98h24.59L47.73 35.05a6.38 6.38 0 00-5.07-1.84 2 2 0 000-2.81L41.29 29a2 2 0 00-2.82 0l-.74.74a2.5 2.5 0 00-.63-1l-2.24-2.23a2.52 2.52 0 00-1.35-.7 3.35 3.35 0 00.22-.46 4.25 4.25 0 00-.92-4.68L13.92 1.75a4.31 4.31 0 00-6.07 0L2.9 6.7a4.3 4.3 0 000 6.07l18.9 18.9a4.28 4.28 0 004.73.9 3.12 3.12 0 00.45-.23m12.07-2.73zm-10.57-.91l-.37.37-6.53-6.55a.82.82 0 00-1.41.57.85.85 0 00.23.57l6.6 6.56-.27.26a2.6 2.6 0 01-1.86.77 2.6 2.6 0 01-1.87-.77L4.09 11.6a2.63 2.63 0 010-3.73L9 2.92a2.62 2.62 0 013.71 0l18.93 18.89a2.63 2.63 0 010 3.73zm4.73 11.56a.33.33 0 01-.24.1.42.42 0 01-.24-.1l-1.33-1.34a.34.34 0 010-.48l8.25-8.25a.32.32 0 01.24-.1.32.32 0 01.24.1l1.34 1.34a.34.34 0 01.1.24.33.33 0 01-.1.24zm3.67 4.27a4.19 4.19 0 01.24-5.63l2.71-2.72a4.74 4.74 0 016.69 0L67 57.86H47.09z"/><path class="cls-1" d="M18.17 20.13v.06h-.05a.83.83 0 01-1.12 0l-1.79-1.78a.83.83 0 010-1.1.82.82 0 011.16-.09L18.11 19a.83.83 0 01.06 1.13zm20.89 9.48z"/></svg>