<svg width="21" height="20" fill="none" xmlns="http://www.w3.org/2000/svg"><path d="M5.48 10.868c.025-.063.276-1.025.293-1.09-.39-.588-.825-2.514-.492-4.078.36-2.294 2.79-3.422 5.086-3.422v-.004c2.874.002 5.025 1.6 5.027 4.354.002 2.156-1.296 5.005-3.514 5.005h-.001c-.791 0-1.793-.359-2.056-.711-.303-.407-.378-.908-.218-1.443.393-1.254.894-2.755.952-3.756.054-.944-.616-1.559-1.485-1.559-.655 0-1.504.38-1.928 1.448-.35.887-.342 1.815.023 2.838.143.4-.63 3.008-.879 3.857-.615 2.109-1.458 4.777-1.278 6.263L5.184 20l.874-1.145c1.209-1.583 2.459-5.677 2.792-6.673.985 1.275 3.036 1.312 3.275 1.312 2.937 0 6.267-2.917 6.172-6.975C18.215 2.959 15.61 0 10.93 0v.005c-4.452 0-7.05 2.376-7.687 5.379-.583 2.784.713 4.903 2.238 5.484z" fill="#EEEDEB"/></svg>