<svg id="Шар_1" data-name="Шар 1" xmlns="http://www.w3.org/2000/svg" viewBox="0 0 101.04 101.44"><defs><style>.cls-1{fill:#242d36;}</style></defs><title>design</title><path class="cls-1" d="M86,62.44h0a.77.77,0,0,1,.21-.57.78.78,0,0,0-.23.56.76.76,0,0,0,.26.52A.78.78,0,0,1,86,62.44Z"/><path class="cls-1" d="M98.38,53.21H2.68A2.68,2.68,0,0,0,0,55.89v4.59a2.68,2.68,0,0,0,2.68,2.68h.77v4.59H8.06l.75,33.68h4.58l.75-33.68h72.4l.74,33.31v.38h4.58l.75-33.68h4.25V63.14h1.52A2.68,2.68,0,0,0,101,60.46v-4.6A2.69,2.69,0,0,0,98.38,53.21ZM11.87,99.91H10.32L9.57,67.75h3Zm78.47,0H88.79L88,67.75h3Zm9.19-39.42a1.15,1.15,0,0,1-1.15,1.15H86.76a.72.72,0,0,0-.23,0l-.07,0,0,0h0a.65.65,0,0,0-.17.13.77.77,0,0,0-.21.57h0a.78.78,0,0,0,.24.51l.1.08a.74.74,0,0,0,.42.13h8.54v3.06H5V63.16H82.35a.76.76,0,0,0,.7-.46l0-.12a.68.68,0,0,0,0-.15.72.72,0,0,0-.06-.31l0-.1-.11-.15-.07-.07h0a.72.72,0,0,0-.44-.18H2.68a1.15,1.15,0,0,1-1.15-1.15V55.89a1.15,1.15,0,0,1,1.15-1.15H98.37a1.15,1.15,0,0,1,1.15,1.15Z"/><path class="cls-1" d="M86.75,61.63a.62.62,0,0,0-.21,0,.72.72,0,0,1,.23,0h0Z"/><path class="cls-1" d="M17.59,79.24l0,.65v-.65Z"/><path class="cls-1" d="M17.61,72.35v7.54l0,.88.44,18.76h3.28l.16-7.19L50,88.4l28.43,3.93.17,7.19h3.28l.43-18.76,0-1.53V72.35Zm2,25.65-.43-17.23h1.13L19.85,98Zm2-7.21.15-6.28,22.67,3.13ZM21.73,83l0-2.19H78.11l.05,2.2L50,86.86Zm33.82,4.67,22.64-3.12.15,6.27ZM80.33,98H80l-.43-17.23h1.13Zm.43-18.76H19.14V73.88H80.77Z"/><path class="cls-1" d="M34.95,25.5a.77.77,0,0,1-.51-.58l-.21-1.15a3.3,3.3,0,0,0-2.45-2.61V0H30.24V21.15a3.29,3.29,0,0,0-2.48,2.62l-.21,1.14a.77.77,0,0,1-.51.59A12.68,12.68,0,0,0,18.19,37.9v.36l.15.11.18.29H43.46l.11-.19.22-.2v-.36A12.84,12.84,0,0,0,34.95,25.5ZM19.73,37.13A11.22,11.22,0,0,1,27.51,27a2.28,2.28,0,0,0,1.56-1.76l.21-1.15a1.77,1.77,0,0,1,1.42-1.42,1.77,1.77,0,0,1,2,1.42l.21,1.16A2.29,2.29,0,0,0,34.52,27a11.22,11.22,0,0,1,7.76,10.17Z"/><path class="cls-1" d="M74,25.5a.77.77,0,0,1-.51-.58l-.21-1.15a3.3,3.3,0,0,0-2.45-2.61V0H69.28V21.15a3.29,3.29,0,0,0-2.48,2.62l-.21,1.15a.77.77,0,0,1-.51.58,12.84,12.84,0,0,0-8.85,12.4v.36l.15.11.21.28H82.5l.11-.19.22-.2v-.36A12.84,12.84,0,0,0,74,25.5ZM58.77,37.13A11.22,11.22,0,0,1,66.56,27a2.29,2.29,0,0,0,1.55-1.76l.21-1.15a1.76,1.76,0,0,1,3.46,0L72,25.21A2.29,2.29,0,0,0,73.57,27a11.22,11.22,0,0,1,7.76,10.17Z"/><path class="cls-1" d="M66.48,36.11a.77.77,0,0,1-.77.77h-5a.77.77,0,0,1,0-1.53h5A.77.77,0,0,1,66.48,36.11Z"/><path class="cls-1" d="M71.84,36.11a.77.77,0,0,1-.77.77h-2.3a.77.77,0,0,1,0-1.53h2.3A.77.77,0,0,1,71.84,36.11Z"/></svg>