<svg id="Шар_1" data-name="Шар 1" xmlns="http://www.w3.org/2000/svg" viewBox="0 0 112.83 105.96"><defs><style>.cls-1{fill:#2b2b2b;}</style></defs><title>generation</title><path class="cls-1" d="M32.87,87.09C32.87,97.5,25.53,106,16.52,106S.17,97.5.17,87.09A21.27,21.27,0,0,1,1.37,80a.56.56,0,0,1,0-.11.69.69,0,0,1,.94-.25.68.68,0,0,1,.3.81,20,20,0,0,0-1.11,6.61c0,9.65,6.71,17.5,15,17.5s15-7.85,15-17.5-6.71-17.5-15-17.5A14.18,14.18,0,0,0,5.13,75.74a.69.69,0,0,1-.84.22L4.2,75.9a.68.68,0,0,1-.18-1A15.52,15.52,0,0,1,16.52,68.2C25.54,68.2,32.87,76.67,32.87,87.09Z"/><path class="cls-1" d="M16.52,75.8c-5.41,0-9.81,5.06-9.81,11.28s4.4,11.28,9.81,11.28,9.81-5.06,9.81-11.28S21.93,75.8,16.52,75.8Zm0,21.18c-4.65,0-8.43-4.44-8.43-9.9s3.78-9.9,8.43-9.9S25,81.62,25,87.08,21.17,97,16.52,97Z"/><path class="cls-1" d="M39,74.46V99.32H63.91V74.46ZM62.53,97.94H40.43V75.84h22.1Z"/><path class="cls-1" d="M57.68,81.36V92.41a.69.69,0,0,1-.69.69H45.94a.69.69,0,0,1-.69-.69V81.36a.69.69,0,0,1,.69-.69h3.58l.17,0a.69.69,0,0,1,.52.83.71.71,0,0,1-.7.52H46.89a.23.23,0,0,0-.23.23v9.21a.23.23,0,0,0,.23.23H56.1a.23.23,0,0,0,.23-.23V82.27A.23.23,0,0,0,56.1,82H54.72a.67.67,0,0,1-.68-.52h0a1.17,1.17,0,0,1,0-.13.7.7,0,0,1,.67-.71H57A.69.69,0,0,1,57.68,81.36Z"/><path class="cls-1" d="M87.85,38.54V63.41h24.86V38.54ZM111.34,62H89.24V39.92h22.1Z"/><path class="cls-1" d="M94.07,44.76V57.19H106.5V44.76Zm1.38,11.05V46.14h9.67v9.67Z"/><path class="cls-1" d="M111.53,5.27,108,1.72a4.41,4.41,0,0,0-3.14-1.3H95a4.41,4.41,0,0,0-3.14,1.3L88.35,5.27A4.46,4.46,0,0,0,87,8.43V27.91A4.39,4.39,0,0,0,88.35,31l3.55,3.55A4.41,4.41,0,0,0,95,35.9h9.82A4.38,4.38,0,0,0,108,34.59L111.53,31a4.41,4.41,0,0,0,1.3-3.14V8.43A4.46,4.46,0,0,0,111.53,5.27Zm-.08,3.54V27.53a4,4,0,0,1-1.16,2.81l-3,3a4,4,0,0,1-2.81,1.16H95.42a4,4,0,0,1-2.81-1.16l-3-3a4,4,0,0,1-1.16-2.81V8.81A4,4,0,0,1,89.6,6l3-3a4,4,0,0,1,2.81-1.16h9.05A4,4,0,0,1,107.28,3l3,3A4,4,0,0,1,111.45,8.81Z"/><path class="cls-1" d="M99.93,9.46a6.44,6.44,0,0,0-6.43,6.43v4.55a6.45,6.45,0,0,0,6.44,6.43h0a6.45,6.45,0,0,0,6.42-6.43V15.89A6.44,6.44,0,0,0,99.93,9.46ZM105,15.89v4.55a5.05,5.05,0,0,1-10.1,0V15.89a5.05,5.05,0,0,1,5.06-5h.14A5.07,5.07,0,0,1,105,15.89Z"/><path class="cls-1" d="M111.53,71.91l-.12-.06a1.56,1.56,0,0,0-.69-.16H71.08a1.57,1.57,0,0,0-.61.12h0a1.65,1.65,0,0,0-1,1.51V101a1.66,1.66,0,0,0,.86,1.44h0l.15.22.13-.09a1.6,1.6,0,0,0,.49.08h39.66a1.65,1.65,0,0,0,1.64-1.64V73.33A1.66,1.66,0,0,0,111.53,71.91Zm-1.85,1.17-9.28,6.57a1.57,1.57,0,0,0-.59-.12H82a1.51,1.51,0,0,0-.5.09l-9.23-6.54Zm-9.7,8v12.2a.17.17,0,0,1-.17.17H82a.17.17,0,0,1-.17-.17V81.07A.17.17,0,0,1,82,80.9H99.82A.17.17,0,0,1,100,81.07ZM70.82,100.71v-27l9.68,6.86a1.53,1.53,0,0,0-.07.46V93.28a1.47,1.47,0,0,0,.11.55Zm1.6.56,9.18-6.5a1.47,1.47,0,0,0,.38.05H99.83a1.52,1.52,0,0,0,.48-.08l9.38,6.52ZM111,100.5l-9.7-6.75a1.57,1.57,0,0,0,.07-.47V81.07a1.5,1.5,0,0,0-.05-.38L111,73.84Z"/><path class="cls-1" d="M70.45,71.8l0,0h0Z"/><path class="cls-1" d="M111.47,71.81l-.05,0,.12.06Z"/><path class="cls-1" d="M54.7,12.8l.08.07.06-.07Z"/><path class="cls-1" d="M28.12,12.79l.09.11.12-.11Z"/><path class="cls-1" d="M40.69,50.63,41,50.5v0"/><path class="cls-1" d="M52.35,37.47l-.51,0h-.34a3.61,3.61,0,0,1,.5,0Z"/><path class="cls-1" d="M81.68,11.41H55.2L41.5,0l-.12.14L27.84,11.41H1.64A1.65,1.65,0,0,0,0,13.05V62.72a1.65,1.65,0,0,0,1.64,1.64h80a1.65,1.65,0,0,0,1.64-1.64V13A1.65,1.65,0,0,0,81.68,11.41ZM41.53,1.82,53,11.41H30Zm-13.2,11H81L72.1,18.27a1.5,1.5,0,0,0-.83-.25H12a1.49,1.49,0,0,0-.78.22L2.7,12.79Zm14,30.9a24.39,24.39,0,0,0,4.29-.77A4.45,4.45,0,0,1,47,44.57a4.59,4.59,0,0,1-4.52,4.58h-.06a4.58,4.58,0,0,1-4.57-4.52,4.51,4.51,0,0,1,.29-1.68A27.49,27.49,0,0,0,42.35,43.69ZM38.62,42a4.58,4.58,0,0,1,3.72-2h0a4.59,4.59,0,0,1,3.76,2,23.44,23.44,0,0,1-3.77.68A23.1,23.1,0,0,1,38.62,42Zm3.58,8.6a4.24,4.24,0,0,1,1.64.35V51a8.24,8.24,0,0,1-1.66,2.12,8.69,8.69,0,0,1-1.63-2.23l.21-.09A4.05,4.05,0,0,1,42.19,50.58Zm0,3.7c1,0,2.12-1.69,2.77-2.76a16.28,16.28,0,0,1,4.27,4.85h-14a16.59,16.59,0,0,1,4.36-4.88C40.55,53.34,41.44,54.28,42.16,54.28ZM43.9,50a5.61,5.61,0,0,0,.91-10.48h0a4.49,4.49,0,0,0-.59-.25h0a5.56,5.56,0,0,0-1.74-.3,5.66,5.66,0,0,0-4.6,2.31,2.52,2.52,0,0,0-.16.23l-.16.25a2.94,2.94,0,0,0-.15.26h0a5.53,5.53,0,0,0-.63,2.5,5.64,5.64,0,0,0,3.9,5.42,9.08,9.08,0,0,0-3.91,2.52,20.63,20.63,0,0,0-2.93,3.92H12a.17.17,0,0,1-.17-.17V19.57A.17.17,0,0,1,12,19.4H71.27a.17.17,0,0,1,.17.17V56.2a.17.17,0,0,1-.17.17H50.5l0-.06C49.49,54.61,47.09,51,43.9,50ZM1.38,62.34V13.59l9.12,5.8a1.08,1.08,0,0,0,0,.17V56.2a1.4,1.4,0,0,0,.06.42ZM3,63l8.53-5.32a1.53,1.53,0,0,0,.52.09H71.27a1.51,1.51,0,0,0,.69-.17h0L80.29,63Zm79-.58-9.15-5.93a1.28,1.28,0,0,0,0-.27V19.56a.89.89,0,0,0,0-.11l9.13-5.63Z"/><path class="cls-1" d="M58.68,32.18l.08,0a1.69,1.69,0,0,0,1.12-1.72,8,8,0,0,0-16,0,1.84,1.84,0,0,0,.94,1.78l.09,0a7,7,0,0,0,4.45,4.84,7.64,7.64,0,0,0-2.57,2.41.52.52,0,0,0-.08.41.53.53,0,0,0,.24.34.54.54,0,0,0,.72-.15,7.44,7.44,0,0,1,1.22-1.38c.67.93,2,2.58,3,2.58s2.37-1.58,3.14-2.59c1.93,1.67,3.25,4.87,3.25,8.54a24.73,24.73,0,0,1-.46,3.67.53.53,0,0,0,.17.5.57.57,0,0,0,.29.13v0l.09,0,.1,0h0a.46.46,0,0,0,.19-.08h0a.5.5,0,0,0,.17-.3,25.29,25.29,0,0,0,.47-3.86c0-4.72-2.06-8.76-4.94-10.24A7,7,0,0,0,58.68,32.18Zm-7-8.26h.23a7.14,7.14,0,0,1,5,2.05,6.27,6.27,0,0,1,1.86,4.48.66.66,0,0,1-.43.68,3.54,3.54,0,0,1-3-.93c-.15-.17-.11-.35,0-.64a1.17,1.17,0,0,0-.05-1.1,1.45,1.45,0,0,0-1.23-.41A3.15,3.15,0,0,0,52,29l-.12.1a3.13,3.13,0,0,1-1.6.92,3.44,3.44,0,0,1-.93-.64c-.55-.46-1.18-1-1.75-.74a2.57,2.57,0,0,0-1.18,1.69,1.9,1.9,0,0,1-.31.69.79.79,0,0,1-.77.19.83.83,0,0,1-.33-.79A6.71,6.71,0,0,1,51.68,23.92Zm.24,16.29c-.28,0-1.21-.91-2.12-2.14a4.4,4.4,0,0,1,1.7-.6h0a3.61,3.61,0,0,1,.5,0l.35,0a4.34,4.34,0,0,1,1.86.6C53.31,39.24,52.29,40.22,51.92,40.22Zm1.24-3.94a6,6,0,0,1-.69.12l-.47,0a4.91,4.91,0,0,0-.64,0,6.07,6.07,0,0,1-5.3-4.18,2.21,2.21,0,0,0,.74-.41,2.54,2.54,0,0,0,.63-1.15,2.84,2.84,0,0,1,.49-1,3.6,3.6,0,0,1,.78.56c.6.48,1.16.94,1.73.85a4.2,4.2,0,0,0,2.19-1.19,2.17,2.17,0,0,1,1.45-.76l.3,0v.06a1.58,1.58,0,0,0,.23,1.7,4.85,4.85,0,0,0,3,1.35A6,6,0,0,1,53.17,36.28Z"/><path class="cls-1" d="M32.7,22.81A9.42,9.42,0,0,0,23,32s.2,4.08,1.06,5a1.87,1.87,0,0,0,1.33.56h.38a4,4,0,0,0,1.53-.62,6.4,6.4,0,0,0,3,2.15c-3.18,1.51-5.48,5.92-5.48,11.1v.42a.53.53,0,0,0,.13.35l0,0,.15.06,0,0,.21.09,0,0a.62.62,0,0,0,.26,0l0,0a.51.51,0,0,0,.24-.45v-.4c0-4.05,1.48-7.58,3.64-9.36.68.93,2,2.54,3,2.54s2.38-1.57,3.23-2.69a7.31,7.31,0,0,1,1,.92.56.56,0,0,0,.45.17.53.53,0,0,0,.42-.27v0a.53.53,0,0,0,0-.41h0a.52.52,0,0,0-.1-.16,7.39,7.39,0,0,0-2.57-1.92A6.45,6.45,0,0,0,37.51,37l.14.08a3.48,3.48,0,0,0,2.89-.25,3.18,3.18,0,0,0,1.78-2.21c0-.08,0-.26,0-2.64V32A9.42,9.42,0,0,0,32.7,22.81Zm-.18,19.45c-.28,0-1.18-.87-2.09-2.09a4.57,4.57,0,0,1,4.41-.12C33.94,41.25,32.89,42.26,32.52,42.26Zm2.83-4.72a5.47,5.47,0,0,1-7.2-1.39,3.34,3.34,0,0,0,.31-.4,5.72,5.72,0,0,0,.1-2.86,8.34,8.34,0,0,1-.06-2.15,7,7,0,0,1,1.92.31,8.47,8.47,0,0,0,2.18.31,1.37,1.37,0,0,0,1.08-.62,2.23,2.23,0,0,0-.23-1.92,4.62,4.62,0,0,1-.24-.64h.06c1.15,0,2.21,1.28,2.69,3.26a13.12,13.12,0,0,1,.25,1.9,9.94,9.94,0,0,0,.38,2.42,4,4,0,0,0,.22.49A5.55,5.55,0,0,1,35.35,37.54Zm6-5.52c0,1.63,0,2.22,0,2.46a2.18,2.18,0,0,1-1.22,1.45,2.46,2.46,0,0,1-2,.21l0,0a.77.77,0,0,1-.15-.15,1.36,1.36,0,0,1-.29-.53,8.83,8.83,0,0,1-.33-2.14A13.24,13.24,0,0,0,37,31.2a6.84,6.84,0,0,0-1.47-3,3.06,3.06,0,0,0-2.23-1.11,1.11,1.11,0,0,0-1,.43c-.32.47-.07,1.07.18,1.68a2.73,2.73,0,0,1,.29,1,.37.37,0,0,1-.25.11h0A8.43,8.43,0,0,1,30.72,30h-.09c-1.44-.31-2.11-.42-2.54-.25-.89.37-.76,1.79-.6,3.3a6.77,6.77,0,0,1,0,2.16,3,3,0,0,1-1.89,1.2.86.86,0,0,1-.77-.23c-.38-.39-.76-3.32-.76-4.23a8.37,8.37,0,0,1,8.59-8.1A8.44,8.44,0,0,1,41.33,32Z"/></svg>