<svg width="21" height="20" viewBox="0 0 21 20" fill="none" xmlns="http://www.w3.org/2000/svg">
<path d="M20.6134 5.90309C20.6022 5.06334 20.445 4.23193 20.1488 3.44606C19.8919 2.78318 19.4997 2.18117 18.997 1.67849C18.4943 1.17581 17.8923 0.783514 17.2294 0.526666C16.4536 0.235455 15.6341 0.0779923 14.8056 0.0609825C13.739 0.0133053 13.4008 0 10.6932 0C7.98558 0 7.63854 7.43489e-08 6.57966 0.0609825C5.75158 0.0781174 4.93241 0.235578 4.157 0.526666C3.49402 0.783335 2.89191 1.17557 2.38921 1.67827C1.88651 2.18097 1.49427 2.78308 1.2376 3.44606C0.945809 4.22124 0.788688 5.04059 0.773029 5.86872C0.725352 6.93647 0.710938 7.27464 0.710938 9.98226C0.710938 12.6899 0.710937 13.0358 0.773029 14.0958C0.78966 14.9252 0.945997 15.7434 1.2376 16.5207C1.4947 17.1835 1.88723 17.7853 2.3901 18.2878C2.89297 18.7903 3.49513 19.1824 4.1581 19.439C4.9314 19.7419 5.75071 19.9106 6.58077 19.9379C7.64852 19.9856 7.98669 20 10.6943 20C13.4019 20 13.749 20 14.8078 19.9379C15.6363 19.9216 16.4559 19.7645 17.2316 19.4733C17.8943 19.2162 18.4962 18.8238 18.9988 18.3211C19.5015 17.8185 19.8939 17.2166 20.151 16.5539C20.4426 15.7778 20.599 14.9595 20.6156 14.1291C20.6633 13.0624 20.6777 12.7242 20.6777 10.0155C20.6755 7.30791 20.6755 6.96419 20.6134 5.90309ZM10.6865 15.1026C7.85475 15.1026 5.5607 12.8085 5.5607 9.97672C5.5607 7.14492 7.85475 4.85087 10.6865 4.85087C12.046 4.85087 13.3498 5.39091 14.3111 6.3522C15.2723 7.31348 15.8124 8.61726 15.8124 9.97672C15.8124 11.3362 15.2723 12.64 14.3111 13.6012C13.3498 14.5625 12.046 15.1026 10.6865 15.1026ZM16.0164 5.85653C15.3545 5.85653 14.8212 5.3221 14.8212 4.66127C14.8212 4.50438 14.8521 4.34903 14.9121 4.20408C14.9721 4.05913 15.0601 3.92743 15.1711 3.81649C15.282 3.70555 15.4137 3.61755 15.5587 3.55751C15.7036 3.49747 15.859 3.46657 16.0159 3.46657C16.1727 3.46657 16.3281 3.49747 16.473 3.55751C16.618 3.61755 16.7497 3.70555 16.8606 3.81649C16.9716 3.92743 17.0596 4.05913 17.1196 4.20408C17.1796 4.34903 17.2106 4.50438 17.2106 4.66127C17.2106 5.3221 16.6761 5.85653 16.0164 5.85653Z" fill="#242D36"/>
<path d="M10.6929 13.3116C12.5318 13.3116 14.0226 11.8209 14.0226 9.98198C14.0226 8.14307 12.5318 6.65234 10.6929 6.65234C8.85401 6.65234 7.36328 8.14307 7.36328 9.98198C7.36328 11.8209 8.85401 13.3116 10.6929 13.3116Z" fill="#242D36"/>
</svg>
