<svg width="1920" height="985" viewBox="0 0 1920 985" fill="none" xmlns="http://www.w3.org/2000/svg">
<path d="M1536.87 1520.34C1563.91 1460.92 1601.75 1402.47 1669.41 1388.29C1702.15 1381.37 1738.77 1389.01 1769.45 1372.16C1806.68 1351.67 1796.37 1327.05 1802.07 1292.37C1807.77 1257.44 1831.78 1253.2 1844.64 1223.37C1858.7 1190.87 1842.94 1156.68 1821.35 1132.18C1806.92 1115.81 1777.7 1101.99 1778.91 1075.79C1780.61 1038.69 1824.75 1047.18 1835.78 1018.92C1855.19 969.448 1761.33 887.96 1726.28 862.373C1675.84 825.631 1601.26 816.415 1558.22 771.306C1493.22 703.035 1609.51 687.15 1657.04 673.933C1735.62 652.227 1814.68 642.404 1895.32 632.461" stroke="#D1D2D4" stroke-opacity="0.5" stroke-miterlimit="10"/>
<path d="M1909.15 923.49C1877.62 898.389 1845.97 873.166 1811.78 851.703C1782.55 833.392 1740.23 821.509 1725.32 787.676C1689.54 706.795 1865.86 722.438 1909.15 722.195" stroke="#D1D2D4" stroke-opacity="0.5" stroke-miterlimit="10"/>
<path d="M1909.87 849.277C1892.41 835.089 1833.48 787.676 1897.26 791.92" stroke="#D1D2D4" stroke-opacity="0.5" stroke-miterlimit="10"/>
<path d="M1900.3 81.5674C1880.17 145.594 1820.51 194.341 1815.65 263.703C1811.05 330.882 1879.44 389.936 1922 433.833" stroke="#D1D2D4" stroke-opacity="0.5" stroke-miterlimit="10"/>
<path d="M1891.69 -14.593C1883.8 35.6095 1875.32 86.5394 1851.31 132.013C1832.51 167.542 1802.8 197.13 1787.28 234.479C1749.81 324.94 1809.83 389.088 1850.21 463.058C1900.17 554.489 1805.59 580.682 1733.8 603.358C1641.52 632.703 1545.73 651.62 1449.2 659.502C1407 662.897 1361.41 661.927 1318.85 659.623C1272.04 657.077 1248.88 648.588 1211.16 632.46C1139.86 602.145 1082.02 476.396 1111.61 401.214C1175.03 239.814 1398.76 156.508 1403.36 -32.0547" stroke="#D1D2D4" stroke-opacity="0.5" stroke-width="1.25" stroke-miterlimit="10"/>
<path d="M1861.49 -17.3818C1838.21 55.8603 1780 113.338 1745.57 181.245C1702.15 266.977 1724.22 335.611 1733.68 425.709C1751.99 600.569 1545.36 637.554 1409.91 619.243C1345.28 610.512 1241.72 592.202 1195.76 541.514C1138.16 477.973 1171.03 397.334 1211.77 334.763C1250.82 274.859 1315.21 241.391 1361.41 188.157C1411.85 130.073 1443.87 55.7391 1451.02 -20.8984" stroke="#D1D2D4" stroke-opacity="0.5" stroke-miterlimit="10"/>
<path d="M1780 -16.6546C1766.67 15.2373 1732.71 34.6392 1714.4 63.6207C1695.97 92.7236 1687.36 126.434 1681.18 159.903C1667.84 232.539 1666.75 302.628 1677.17 375.628C1688.57 455.054 1689.66 515.685 1612.54 557.884C1552.76 590.504 1478.91 605.055 1412.82 584.683C1378.26 574.012 1340.07 558.127 1310.72 538.24C1283.32 519.687 1266.1 501.861 1246.94 473.607C1203.89 410.43 1229.11 347.616 1279.92 299.596C1333.64 248.909 1394.88 210.469 1444.35 154.688C1500.86 91.0259 1504.5 38.0345 1486.43 -46" stroke="#D1D2D4" stroke-opacity="0.5" stroke-miterlimit="10"/>
<path d="M1693.06 -13.5027C1625.27 97.9369 1632.43 240.783 1630.73 368.23C1629.28 473.242 1588.05 594.141 1447.99 559.581C1403.12 548.546 1361.89 519.079 1338.49 479.063C1302.23 416.856 1333.76 375.02 1372.2 324.697C1412.34 272.312 1462.3 226.475 1501.47 174.089C1538.33 124.857 1534.69 44.9455 1534.93 -14.3516" stroke="#D1D2D4" stroke-opacity="0.5" stroke-miterlimit="10"/>
<path d="M1590.59 204.892C1623.09 282.135 1600.54 390.059 1566.83 462.331C1523.41 555.46 1443.02 543.455 1396.82 459.057C1374.63 418.555 1366.99 387.027 1390.75 347.253C1414.04 308.207 1451.02 296.566 1481.7 266.493C1508.26 240.664 1554.09 118.068 1590.59 204.892Z" stroke="#D1D2D4" stroke-opacity="0.5" stroke-width="0.75" stroke-miterlimit="10"/>
<path d="M1563.43 221.018C1606.96 237.025 1570.1 382.418 1561.12 410.551C1545.36 460.147 1489.58 527.932 1445.8 465.118C1411.61 416.129 1384.69 364.714 1435.86 321.059C1456.23 303.598 1481.46 295.716 1500.25 275.222C1514.32 259.943 1533.48 209.983 1563.43 221.018Z" stroke="#D1D2D4" stroke-opacity="0.5" stroke-width="0.75" stroke-miterlimit="10"/>
<path d="M1541.12 391.27C1527.66 429.225 1494.8 478.821 1455.14 437.349C1419.98 400.486 1429.19 359.014 1463.87 330.76C1479.4 318.27 1497.95 312.207 1512.02 297.049C1521.59 286.742 1527.54 259.458 1545.97 262.005C1577.62 266.491 1547.3 373.929 1541.12 391.27Z" stroke="#D1D2D4" stroke-opacity="0.5" stroke-width="0.75" stroke-miterlimit="10"/>
<path d="M1523.05 346.161C1531.17 365.563 1490.67 440.988 1465.57 404.609C1440.59 368.473 1508.38 310.995 1523.05 346.161Z" stroke="#D1D2D4" stroke-opacity="0.5" stroke-width="0.75" stroke-miterlimit="10"/>
<path d="M1655.1 -18.5944C1658.01 -8.04464 1625.64 67.0165 1617.63 78.2938C1597.99 106.063 1574.34 103.153 1562.1 77.0812C1551.18 53.7989 1560.88 -4.28552 1579.92 -22.7173C1595.69 -38.1176 1648.44 -51.8202 1655.1 -18.5944Z" stroke="#D1D2D4" stroke-opacity="0.5" stroke-width="0.75" stroke-miterlimit="10"/>
<path d="M1620.91 12.2056C1619.09 42.8849 1591.8 77.6871 1584.77 30.0311C1579.07 -8.28761 1622.48 -13.8657 1620.91 12.2056Z" stroke="#D1D2D4" stroke-opacity="0.5" stroke-width="0.75" stroke-miterlimit="10"/>
<path d="M1318.72 -19.8077C1319.33 30.1522 1327.45 73.5639 1288.89 109.457C1255.06 140.864 1211.04 154.203 1175.75 182.578C1142.53 209.256 1109.06 245.998 1086.87 282.377C1078.99 295.231 1044.55 363.259 1015.69 327.971C990.951 297.656 1049.52 258.61 1066.5 246.726C1102.39 221.625 1123.37 191.673 1148.71 156.628C1171.15 125.464 1195.64 101.333 1215.41 67.6221C1223.41 54.0408 1236.39 42.7634 1243.78 29.7884C1255.67 9.05263 1248.75 -3.07356 1253.12 -25.3857" stroke="#D1D2D4" stroke-opacity="0.5" stroke-miterlimit="10"/>
<path d="M1175.03 -20.8984C1170.05 -5.7407 1158.41 5.53666 1151.74 19.7243C1141.92 40.4601 1140.83 63.6211 1129.19 83.5081C1109.79 116.734 1072.2 140.986 1045.4 167.785C1016.54 196.524 974.823 233.145 959.665 272.434C952.268 291.593 961.605 359.864 941.112 368.716C908.007 382.904 916.011 296.929 920.255 283.105C930.562 249.031 944.628 209.742 962.818 179.305C984.16 143.533 1018.23 128.981 1047.7 101.455C1086.02 65.44 1091.6 28.2126 1111.97 -16.8968" stroke="#D1D2D4" stroke-opacity="0.5" stroke-miterlimit="10"/>
<path d="M1056.8 -21.8682C1068.56 5.77955 1003.44 93.3306 977.979 97.4535C926.564 105.699 858.172 22.3924 835.617 -16.4114" stroke="#D1D2D4" stroke-opacity="0.5" stroke-miterlimit="10"/>
<path d="M1000.53 -17.9893C965.972 53.434 928.745 30.273 888.971 -17.868" stroke="#D1D2D4" stroke-opacity="0.5" stroke-miterlimit="10"/>
<path d="M773.893 -23.8096C803.602 12.4477 831.735 50.0389 859.504 87.9939C878.906 114.429 904.977 139.651 904.25 173.726C902.431 255.82 835.858 285.044 765.041 283.104C712.899 281.649 620.74 221.867 623.286 163.298C624.984 123.766 655.663 102.909 681.856 78.778C712.535 50.6452 722.115 20.6935 728.663 -19.6867" stroke="#D1D2D4" stroke-opacity="0.5" stroke-miterlimit="10"/>
<path d="M805.666 72.9578C833.678 89.4494 833.556 166.329 827.857 193.856C818.399 238.723 758.98 260.914 727.573 225.99C716.539 213.622 699.319 168.755 701.017 152.142C703.321 129.223 710.839 133.952 725.512 116.006C750.371 85.8115 757.889 44.7037 805.666 72.9578Z" stroke="#D1D2D4" stroke-opacity="0.5" stroke-width="0.75" stroke-miterlimit="10"/>
<path d="M797.538 114.794C811.847 140.259 800.449 223.323 756.431 201.617C695.921 171.908 778.379 80.719 797.538 114.794Z" stroke="#D1D2D4" stroke-opacity="0.5" stroke-width="0.75" stroke-miterlimit="10"/>
<path d="M778.745 167.299C784.808 152.505 743.821 152.869 758.251 175.06C768.074 190.217 778.502 181.85 778.745 167.299Z" stroke="#D1D2D4" stroke-opacity="0.5" stroke-width="0.75" stroke-miterlimit="10"/>
<path d="M1424.71 1513.43C1484.12 1437.76 1558.7 1392.89 1644.31 1352.88C1682.99 1334.81 1696.09 1319.41 1702.15 1277.69C1708.22 1236.34 1733.32 1221.91 1747.51 1185.9C1776.49 1111.81 1629.03 1128.18 1696.21 1045.96C1720.71 1016.01 1743.75 994.912 1733.32 952.592C1721.8 905.663 1679.24 879.835 1638.86 860.19C1554.94 819.325 1463.27 783.553 1370.14 773.003C1285.26 763.302 1189.7 769.608 1128.34 698.791C1074.38 636.462 1064.68 548.062 1012.29 484.4C956.878 416.857 871.995 383.995 792.811 353.558C699.075 317.543 595.76 277.163 545.558 183.306C524.58 144.26 506.027 88.237 546.164 59.0129C574.539 38.2771 624.499 38.7622 631.896 -4.52832" stroke="#D1D2D4" stroke-opacity="0.5" stroke-width="1.25" stroke-miterlimit="10"/>
<path d="M1361.65 1510.76C1408.46 1491.72 1448.84 1457.16 1475.39 1414.24C1502.56 1370.46 1505.34 1323.53 1556.64 1300.98C1606.23 1279.15 1631.94 1262.78 1614.36 1202.75C1600.66 1156.19 1586.71 1091.07 1591.32 1041.72C1600.17 948.105 1592.77 916.941 1411.61 874.256C1314.84 851.459 1207.53 866.253 1119.85 811.2C964.031 713.221 974.339 488.159 784.928 420.009C693.617 387.147 578.419 404.367 514.877 319.241C444.667 225.142 394.464 107.396 352.629 -1.61816" stroke="#D1D2D4" stroke-opacity="0.5" stroke-width="0.75" stroke-miterlimit="10"/>
<path d="M555.015 -11.6831C540.585 19.36 497.173 27.1207 466.615 23.2404C434.48 19.1174 431.206 8.93145 413.381 -19.8076" stroke="#D1D2D4" stroke-opacity="0.5" stroke-miterlimit="10"/>
<path d="M817.911 1517.67C839.496 1485.05 923.531 1487.24 956.393 1484.2C1012.17 1479.11 1068.44 1477.9 1124.34 1480.57C1179.27 1483.23 1232.63 1494.88 1287.19 1499.36C1346.98 1504.33 1370.02 1470.74 1397.54 1422.24C1418.52 1385.25 1427.86 1338.08 1452.96 1304.01C1473.7 1275.76 1516.02 1271.63 1533.36 1242.53C1553.85 1208.09 1520.02 1169.89 1521.35 1133.88C1523.53 1080.04 1552.15 1045.84 1512.38 996.974C1457.2 929.189 1332.43 920.458 1253.73 900.207C1169.57 878.501 1079.84 854.37 1021.15 785.615C965.123 720.133 947.177 631.734 896.004 563.099C841.436 489.736 760.676 471.062 675.429 454.57C574.175 435.047 489.171 405.216 423.932 320.818C350.932 226.355 326.073 106.427 302.791 -7.92285" stroke="#D1D2D4" stroke-opacity="0.5" stroke-miterlimit="10"/>
<path d="M661.604 1515.37C726.721 1455.59 840.829 1461.04 922.923 1452.19C1007.44 1443.1 1120.22 1449.89 1198.43 1412.78C1240.27 1392.89 1242.69 1363.55 1257.73 1324.86C1275.07 1280.12 1306.84 1258.53 1344.67 1231.74C1427.49 1173.17 1454.29 1108.65 1377.05 1029.35C1349.4 1000.97 1319.21 969.325 1281.74 954.774C1238.57 937.918 1189.34 942.405 1144.95 928.581C1068.32 904.693 968.154 856.309 918.315 791.555C870.902 729.954 878.541 640.099 823.852 583.712C764.555 522.718 660.391 534.722 585.087 505.62C365.482 420.736 308.61 195.432 233.307 -4.65039" stroke="#D1D2D4" stroke-opacity="0.5" stroke-miterlimit="10"/>
<path d="M454.367 1512.94C495.111 1442.37 583.268 1431.09 656.632 1425.88C761.523 1418.48 862.655 1403.2 965.122 1379.19C993.497 1372.52 1065.77 1368.76 1085.17 1344.87C1106.03 1319.17 1085.41 1295.03 1084.81 1266.9C1082.99 1186.02 1170.78 1217.91 1206.68 1166.01C1257.24 1093.01 1164.23 1035.53 1111.36 1008.61C1077.17 991.153 1045.52 971.023 1017.99 943.739C993.618 919.487 971.912 872.437 939.414 858.613C864.959 826.843 982.462 970.053 997.377 984.968C1053.52 1040.87 1162.54 1097.86 1054.73 1164.07C982.705 1208.33 1009.38 1222.16 1011.44 1293.22C1012.41 1324.38 1008.9 1322.8 976.642 1329.59C932.26 1338.93 887.999 1347.18 844.224 1359.18C804.329 1370.1 788.928 1378.22 749.276 1389.74C724.296 1397.02 697.497 1392.29 726.842 1355.18C765.04 1307.04 833.553 1307.28 889.333 1302.55C926.682 1299.4 961.726 1305.1 960.878 1256.35C960.15 1212.46 933.957 1188.57 968.153 1150.61C1015.45 1098.23 1059.1 1079.55 992.042 1012.37C927.409 947.62 879.996 881.168 839.494 798.589C799.721 717.343 773.043 621.546 681.126 586.38C588.119 550.729 495.717 529.266 411.804 472.031C339.047 422.556 276.961 354.043 245.796 270.736C212.207 181.123 243.128 78.0507 201.172 -7.80273" stroke="#D1D2D4" stroke-opacity="0.5" stroke-miterlimit="10"/>
<path d="M383.673 1486.99C389.494 1439.22 401.863 1411.33 447.7 1394.83C496.326 1377.25 551.5 1369.37 601.581 1357.12C705.26 1331.78 754.25 1302.8 813.668 1212.7C836.101 1178.62 859.505 1149.16 889.82 1121.63C922.925 1091.56 944.752 1062.82 929.473 1016.98C898.794 924.822 779.715 909.543 745.398 818.597C729.27 775.913 729.634 728.257 714.718 684.966C695.68 629.914 658.695 619.243 607.038 600.204C534.159 573.406 458.492 552.185 389.979 514.957C191.11 406.792 218.757 175.182 144.545 -9.25781" stroke="#D1D2D4" stroke-opacity="0.5" stroke-width="1.25" stroke-miterlimit="10"/>
<path d="M768.194 1129.76C748.307 1140.67 724.903 1154.98 715.566 1176.93C706.835 1197.3 717.264 1221.19 708.776 1240.95C692.405 1279.15 604.49 1313.59 568.112 1331.29C551.863 1339.3 519.85 1351.79 502.145 1337.72C484.562 1323.77 498.144 1304.01 512.816 1290.67C546.527 1259.87 606.309 1259.38 643.901 1228.46C662.575 1213.06 678.824 1195.72 680.037 1170.5C681.128 1147.34 660.635 1127.21 670.093 1104.17C686.706 1063.3 737.03 1069.37 746.124 1015.53C750.49 989.576 739.697 972.721 774.378 978.057C796.084 981.331 817.184 1003.28 825.551 1022.44C844.104 1065 805.3 1109.63 768.194 1129.76Z" stroke="#D1D2D4" stroke-opacity="0.5" stroke-miterlimit="10"/>
<path d="M647.902 690.666C618.92 634.885 508.087 594.263 449.518 581.166C417.019 573.891 383.672 584.925 410.107 621.668C430.479 649.922 493.293 649.194 522.638 662.897C565.565 682.905 598.185 718.192 624.741 756.632C634.563 770.941 672.639 859.826 695.679 844.911C727.814 824.054 659.058 712.129 647.902 690.666Z" stroke="#D1D2D4" stroke-opacity="0.5" stroke-miterlimit="10"/>
<path d="M321.95 1509.79C256.59 1430 358.814 1390.47 407.925 1356.76C445.637 1330.81 431.692 1306.31 451.7 1272C473.649 1234.28 524.942 1249.68 558.532 1229.19C598.306 1204.82 589.09 1179.47 572.356 1146.97C549.316 1102.11 541.07 1098.47 593.092 1076.4C675.55 1041.23 673.125 949.075 643.537 877.046C613.464 803.804 568.597 761.968 503.115 717.708C467.464 693.577 438.725 692.728 397.617 679.995C360.633 668.597 307.399 623.608 283.995 590.261C255.984 550.245 242.281 488.523 226.153 442.928C210.51 398.789 195.595 354.528 181.408 309.904C148.182 205.861 118.715 100.727 93.1289 -5.37695" stroke="#D1D2D4" stroke-opacity="0.5" stroke-miterlimit="10"/>
<path d="M269.202 1514.03C257.925 1473.41 240.22 1434.37 216.938 1399.08C197.051 1369.01 155.822 1337.6 169.282 1298.07C180.438 1265.33 212.694 1247.02 221.91 1210.88C231.489 1173.29 219.242 1144.55 211.239 1108.41C202.265 1067.91 195.111 1036.51 242.888 1022.92C271.506 1014.8 302.185 1023.05 330.803 1027.05C400.165 1036.63 466.252 1016.13 462.008 932.341C458.492 861.16 395.921 786.827 357.238 730.319C311.28 663.261 247.981 616.696 196.809 554.61C83.0649 416.129 56.6298 230.841 54.5684 57.3154" stroke="#D1D2D4" stroke-opacity="0.5" stroke-miterlimit="10"/>
<path d="M120.292 1514.16C103.558 1455.1 47.8986 1411.2 24.01 1353.73C-0.121082 1295.52 4.60813 1271.03 51.294 1233.07C103.437 1190.51 90.8253 1151.82 50.4451 1107.08C13.824 1066.7 -13.8237 1005.1 8.97356 950.53C48.5049 855.825 226.396 928.703 221.909 796.77C219.848 737.352 169.646 693.091 132.176 652.469C88.5214 605.055 43.0481 554.125 29.103 489.25" stroke="#D1D2D4" stroke-opacity="0.5" stroke-miterlimit="10"/>
<path d="M337.714 1333.84C398.708 1325.47 357.479 1262.66 387.31 1229.55C417.262 1196.33 503.964 1201.42 495.839 1139.7C493.171 1119.57 474.982 1111.2 477.893 1088.65C480.924 1064.88 503.964 1053.6 519.243 1038.69C534.522 1023.53 556.591 1005.1 551.256 980.24C545.193 951.622 531.733 957.806 513.907 971.145C465.766 1007.28 461.401 1071.43 392.524 1082.22C336.501 1091.07 290.543 1061.36 285.207 1136.06C281.327 1190.75 296.485 1240.59 277.083 1293.82C255.256 1353.97 289.33 1340.51 337.714 1333.84Z" stroke="#D1D2D4" stroke-opacity="0.5" stroke-miterlimit="10"/>
<path d="M499.479 838.363C466.617 818.234 452.187 793.86 455.946 765C473.407 737.11 559.625 813.383 546.65 840.546C538.768 857.159 507.967 843.941 499.479 838.363Z" stroke="#D1D2D4" stroke-opacity="0.5" stroke-miterlimit="10"/>
</svg>
