<svg width="129" height="50" viewBox="0 0 129 50" fill="none" xmlns="http://www.w3.org/2000/svg">
<g clip-path="url(#clip0)">
<path d="M1.42736 47.4189C0.951576 47.1471 0.611727 46.8074 0.407818 46.3319C0.135939 45.9243 0 45.3808 0 44.8373C0 44.2939 0.135939 43.7504 0.407818 43.2748C0.679697 42.7993 1.01955 42.4596 1.42736 42.1879C1.90315 41.9161 2.37894 41.7803 2.9227 41.7803C3.46646 41.7803 4.01021 41.9161 4.41803 42.1879C4.89382 42.4596 5.23367 42.7993 5.43758 43.2748C5.70946 43.7504 5.8454 44.2259 5.8454 44.8373C5.8454 45.4487 5.70946 45.9243 5.43758 46.3998C5.1657 46.8754 4.82585 47.2151 4.41803 47.4868C3.94224 47.7585 3.46646 47.8944 2.9227 47.8944C2.37894 47.8265 1.90315 47.6906 1.42736 47.4189ZM4.14615 47.0112C4.486 46.8074 4.75788 46.5357 4.96179 46.1281C5.1657 45.7205 5.30164 45.3129 5.30164 44.8373C5.30164 44.3618 5.1657 43.9542 4.96179 43.5466C4.75788 43.139 4.486 42.8672 4.14615 42.6634C3.8063 42.4596 3.39849 42.3238 2.9227 42.3238C2.44691 42.3238 2.03909 42.4596 1.69924 42.6634C1.35939 42.8672 1.08752 43.139 0.883606 43.5466C0.679697 43.9542 0.543758 44.3618 0.543758 44.8373C0.543758 45.3129 0.679697 45.7205 0.883606 46.1281C1.08752 46.5357 1.35939 46.8074 1.69924 47.0112C2.03909 47.215 2.44691 47.3509 2.9227 47.3509C3.39849 47.3509 3.8063 47.215 4.14615 47.0112Z" fill="black"/>
<path d="M14.4774 42.4591C14.8852 42.8667 15.0891 43.4781 15.0891 44.2933V47.69H14.5454V44.2933C14.5454 43.614 14.4094 43.1384 14.0696 42.7987C13.7297 42.4591 13.254 42.2553 12.6422 42.2553C11.9625 42.2553 11.4188 42.4591 11.011 42.8667C10.6031 43.2743 10.3992 43.8178 10.3992 44.565V47.69H9.85547V41.8477H10.3992V43.1384C10.6031 42.7308 10.875 42.3911 11.2828 42.1873C11.6907 41.9835 12.1664 41.8477 12.7102 41.8477C13.4579 41.8477 14.0696 42.0515 14.4774 42.4591Z" fill="black"/>
<path d="M19.7109 39.4023H20.2547V47.7583H19.7109V39.4023Z" fill="black"/>
<path d="M29.5671 41.916L26.5764 48.5736C26.3725 49.1171 26.1006 49.4568 25.7608 49.6606C25.4889 49.8644 25.0811 50.0003 24.7412 50.0003C24.4694 50.0003 24.1975 49.9323 23.9936 49.8644C23.7897 49.7964 23.5857 49.6606 23.3818 49.4568L23.6537 49.0492C23.9256 49.3888 24.3334 49.5247 24.7412 49.5247C25.0131 49.5247 25.285 49.4568 25.4889 49.3209C25.6928 49.185 25.8967 48.9133 26.0327 48.5057L26.3725 47.8263L23.7217 41.9839H24.3334L26.7123 47.2149L29.0913 41.9839H29.5671V41.916Z" fill="black"/>
<path d="M46.6271 41.916L44.3841 47.7584H43.8403L41.8692 42.6633L39.8981 47.7584H39.3543L37.1113 41.916H37.6551L39.6262 47.147L41.5973 41.916H42.1411L44.1122 47.147L46.0833 41.916H46.6271Z" fill="black"/>
<path d="M50.7731 47.4184C50.2973 47.1467 49.9574 46.807 49.7535 46.3315C49.4816 45.8559 49.3457 45.3804 49.3457 44.769C49.3457 44.1576 49.4816 43.682 49.7535 43.2065C50.0254 42.7309 50.3652 42.3913 50.7731 42.1195C51.2489 41.8478 51.7246 41.7119 52.2684 41.7119C52.8122 41.7119 53.3559 41.8478 53.7637 42.1195C54.2395 42.3913 54.5794 42.7309 54.7833 43.2065C55.0552 43.682 55.1911 44.1576 55.1911 44.769C55.1911 45.3804 55.0552 45.8559 54.7833 46.3315C54.5114 46.807 54.1716 47.1467 53.7637 47.4184C53.2879 47.6902 52.8122 47.826 52.2684 47.826C51.7246 47.826 51.2489 47.6902 50.7731 47.4184ZM53.4919 47.0108C53.8317 46.807 54.1036 46.5353 54.3075 46.1277C54.5114 45.7201 54.6473 45.3125 54.6473 44.8369C54.6473 44.3614 54.5114 43.9538 54.3075 43.5462C54.1036 43.1385 53.8317 42.8668 53.4919 42.663C53.152 42.4592 52.7442 42.3233 52.2684 42.3233C51.7926 42.3233 51.3848 42.4592 51.0449 42.663C50.7051 42.8668 50.4332 43.1385 50.2293 43.5462C50.0254 43.9538 49.8895 44.3614 49.8895 44.8369C49.8895 45.3125 50.0254 45.7201 50.2293 46.1277C50.4332 46.5353 50.7051 46.807 51.0449 47.0108C51.3848 47.2146 51.7926 47.3505 52.2684 47.3505C52.7442 47.2826 53.152 47.2146 53.4919 47.0108Z" fill="black"/>
<path d="M60.0172 47.4184C59.5414 47.1467 59.2016 46.807 58.9977 46.3315C58.7258 45.8559 58.5898 45.3804 58.5898 44.769C58.5898 44.1576 58.7258 43.682 58.9977 43.2065C59.2695 42.7309 59.6094 42.3913 60.0172 42.1195C60.493 41.8478 60.9688 41.7119 61.5125 41.7119C62.0563 41.7119 62.6 41.8478 63.0079 42.1195C63.4836 42.3913 63.8235 42.7309 64.0274 43.2065C64.2993 43.682 64.4352 44.1576 64.4352 44.769C64.4352 45.3804 64.2993 45.8559 64.0274 46.3315C63.7555 46.807 63.4157 47.1467 63.0079 47.4184C62.5321 47.6902 62.0563 47.826 61.5125 47.826C60.9688 47.826 60.493 47.6902 60.0172 47.4184ZM62.736 47.0108C63.0758 46.807 63.3477 46.5353 63.5516 46.1277C63.7555 45.7201 63.8915 45.3125 63.8915 44.8369C63.8915 44.3614 63.7555 43.9538 63.5516 43.5462C63.3477 43.1385 63.0758 42.8668 62.736 42.663C62.3961 42.4592 61.9883 42.3233 61.5125 42.3233C61.0367 42.3233 60.6289 42.4592 60.2891 42.663C59.9492 42.8668 59.6774 43.1385 59.4734 43.5462C59.2695 43.9538 59.1336 44.3614 59.1336 44.8369C59.1336 45.3125 59.2695 45.7201 59.4734 46.1277C59.6774 46.5353 59.9492 46.807 60.2891 47.0108C60.6289 47.2146 61.0367 47.3505 61.5125 47.3505C61.9883 47.2826 62.3961 47.2146 62.736 47.0108Z" fill="black"/>
<path d="M73.6794 39.4023V47.7583H73.1356V46.3996C72.9317 46.8752 72.5919 47.2148 72.184 47.4866C71.7762 47.7583 71.3004 47.8263 70.7567 47.8263C70.2129 47.8263 69.7371 47.6904 69.2613 47.4186C68.7856 47.1469 68.4457 46.8072 68.2418 46.3317C67.9699 45.8561 67.834 45.3806 67.834 44.7692C67.834 44.1578 67.9699 43.6822 68.2418 43.2067C68.5137 42.7311 68.8535 42.3915 69.2613 42.1197C69.7371 41.848 70.2129 41.7121 70.7567 41.7121C71.3004 41.7121 71.7762 41.848 72.184 42.0518C72.5919 42.3235 72.9317 42.6632 73.1356 43.0708V39.4023H73.6794ZM71.9801 47.011C72.32 46.8072 72.5919 46.5355 72.7958 46.1279C72.9997 45.7203 73.1356 45.3127 73.1356 44.8371C73.1356 44.3616 72.9997 43.954 72.7958 43.5464C72.5919 43.1388 72.32 42.867 71.9801 42.6632C71.6403 42.4594 71.2325 42.3235 70.7567 42.3235C70.2809 42.3235 69.8731 42.4594 69.5332 42.6632C69.1934 42.867 68.9215 43.1388 68.7176 43.5464C68.5137 43.954 68.3777 44.3616 68.3777 44.8371C68.3777 45.3127 68.5137 45.7203 68.7176 46.1279C68.9215 46.5355 69.1934 46.8072 69.5332 47.011C69.8731 47.2148 70.2809 47.3507 70.7567 47.3507C71.2325 47.3507 71.5723 47.2148 71.9801 47.011Z" fill="black"/>
<path d="M23.9933 18.0026C25.7605 19.4293 26.6441 21.1956 26.6441 23.1657C26.6441 25.8831 25.5566 27.989 23.4496 29.4836C21.3425 30.9782 18.3518 31.7255 14.5455 31.7255H0V30.8423C0.951576 30.7744 1.63127 30.6385 2.10706 30.5026C2.58285 30.2988 2.85473 29.9592 3.05864 29.4836C3.19458 29.0081 3.26255 28.1929 3.26255 27.1059V5.36676C3.26255 4.27981 3.19458 3.46459 3.05864 2.98905C2.85473 2.37763 2.58285 2.03796 2.10706 1.83415C1.63127 1.69828 0.951576 1.56242 0 1.49448V0.611328L13.526 0.679263C17.0604 0.679263 19.7112 1.29068 21.6144 2.58144C23.4495 3.80426 24.4011 5.50263 24.4011 7.60861C24.4011 9.30698 23.6535 10.8695 22.1581 12.2961C20.6628 13.7907 18.4878 14.7418 15.633 15.2852V15.3532C19.4393 15.6249 22.2261 16.5081 23.9933 18.0026ZM11.215 1.83415C10.8752 2.03796 10.6033 2.37763 10.4673 2.92111C10.3314 3.46459 10.2634 4.21187 10.2634 5.29883V15.2173H12.1666C14.0697 15.2173 15.4291 14.538 16.1768 13.2472C16.9245 11.9564 17.3323 10.1901 17.3323 8.01622C17.3323 5.84231 16.9924 4.21187 16.3127 3.12491C15.633 2.03796 14.5455 1.49448 13.0502 1.49448C12.1666 1.49448 11.6228 1.63035 11.215 1.83415ZM19.3714 22.9619C19.3714 20.6521 18.7596 18.8858 17.6042 17.7309C16.4487 16.5081 14.6135 15.9646 12.0986 15.9646H10.2634V27.038C10.2634 28.1249 10.3314 28.8722 10.4673 29.3477C10.6033 29.8233 10.8752 30.163 11.3509 30.3668C11.7588 30.5706 12.4385 30.6385 13.3221 30.6385C17.3323 30.6385 19.3714 28.1249 19.3714 22.9619Z" fill="black"/>
<path d="M52.948 1.90217C55.259 3.125 57.0941 4.95924 58.3856 7.33696C59.677 9.71467 60.2887 12.5679 60.2887 15.8967C60.2887 19.0897 59.609 21.9429 58.3176 24.4565C57.0262 26.9701 55.191 28.8723 52.812 30.231C50.4331 31.5897 47.7823 32.269 44.7237 32.269C41.597 32.269 38.8783 31.6576 36.5673 30.3668C34.2563 29.144 32.4211 27.3098 31.1297 24.9321C29.8383 22.5543 29.2266 19.7011 29.2266 16.3723C29.2266 13.1793 29.9063 10.3261 31.1977 7.8125C32.4891 5.29891 34.3243 3.39674 36.7032 2.03804C39.0822 0.679348 41.733 0 44.7916 0C47.9182 0 50.637 0.611413 52.948 1.90217ZM40.3736 2.71739C39.1501 4.00815 38.1986 5.84239 37.5189 8.15217C36.8392 10.462 36.5673 13.1793 36.5673 16.1685C36.5673 19.2255 36.9071 21.875 37.6548 24.1848C38.4025 26.4946 39.422 28.2609 40.7134 29.5516C42.0049 30.7745 43.4322 31.4538 44.9276 31.4538C46.5588 31.4538 47.9862 30.7745 49.2097 29.4837C50.4331 28.1929 51.3847 26.3587 52.0644 24.0489C52.7441 21.7391 53.016 19.0217 53.016 16.0326C53.016 12.9755 52.6761 10.3261 51.9284 8.0163C51.1808 5.70652 50.1612 3.94022 48.8698 2.64946C47.5784 1.42663 46.151 0.747283 44.6557 0.747283C43.0244 0.815217 41.597 1.42663 40.3736 2.71739Z" fill="black"/>
<path d="M77.8936 14.4027C78.5733 15.0141 78.9132 15.8293 78.9132 16.9163C78.9132 18.0032 78.5733 18.8184 77.8936 19.4299C77.2139 20.0413 76.3303 20.313 75.1748 20.313C74.0194 20.313 73.1358 20.0413 72.4561 19.4299C71.7764 18.8184 71.4365 18.0032 71.4365 16.9163C71.4365 15.8293 71.7764 15.0141 72.4561 14.4027C73.1358 13.7913 74.0194 13.5195 75.1748 13.5195C76.3303 13.5195 77.2139 13.7913 77.8936 14.4027Z" fill="black"/>
<path d="M85.5742 46.8749C86.7977 46.739 87.8172 46.3994 88.6329 45.788C89.4485 45.1765 90.0602 44.2255 90.468 42.7988C90.8759 41.4401 91.0798 39.538 91.0798 37.0923V5.29883C91.0798 4.21187 91.0118 3.39665 90.8079 2.92111C90.6719 2.44557 90.3321 2.10589 89.8563 1.90209C89.3805 1.69828 88.7008 1.63035 87.7493 1.56242V0.611328H101.343V1.49448C100.392 1.56242 99.6439 1.69828 99.1682 1.83415C98.6924 2.03796 98.4205 2.37763 98.2846 2.85318C98.1486 3.32872 98.0806 4.14394 98.0806 5.23089V29.1439V31.7934C98.0806 35.9374 97.8088 38.7907 97.333 40.557C96.7212 42.7309 95.4298 44.4293 93.3907 45.72C91.3516 47.0108 88.7688 47.6901 85.5742 47.6901V46.8749Z" fill="black"/>
<path d="M128.803 31.6575H104.47V30.7744C105.421 30.7064 106.101 30.5706 106.577 30.4347C107.053 30.2309 107.324 29.8912 107.528 29.4157C107.664 28.9401 107.732 28.1249 107.732 27.038V5.29883C107.732 4.21187 107.664 3.39665 107.528 2.92111C107.392 2.44557 107.053 2.10589 106.577 1.90209C106.101 1.69828 105.421 1.63035 104.47 1.56241V0.611328H127.919C127.715 3.05698 127.647 5.23089 127.647 7.06513C127.647 8.35589 127.715 9.37491 127.783 10.0543H126.764C126.288 6.92926 125.54 4.75535 124.385 3.46459C123.229 2.24176 121.666 1.56241 119.559 1.56241H117.792C116.908 1.56241 116.228 1.63035 115.821 1.76622C115.413 1.90209 115.141 2.17383 115.005 2.64937C114.869 3.05698 114.801 3.73633 114.801 4.68741V15.557H116.161C117.724 15.557 118.879 15.0135 119.695 13.8586C120.511 12.7037 121.054 11.345 121.394 9.78252H122.414C122.346 11.0053 122.278 12.364 122.278 13.9265V16.0325C122.278 17.5271 122.346 19.5651 122.55 22.2825H121.53C120.918 18.4102 119.151 16.5081 116.161 16.5081H114.801V27.5814C114.801 28.5325 114.869 29.2119 115.005 29.6195C115.141 30.0271 115.413 30.2988 115.821 30.5026C116.228 30.6385 116.908 30.7064 117.792 30.7064H119.967C122.006 30.7064 123.705 30.0271 124.997 28.6005C126.288 27.1738 127.172 24.7961 127.715 21.3994H128.735C128.667 22.3505 128.599 23.5733 128.599 25.0678C128.531 27.7173 128.599 29.8912 128.803 31.6575Z" fill="black"/>
</g>
<defs>
<clipPath id="clip0">
<rect width="128.803" height="50" fill="white"/>
</clipPath>
</defs>
</svg>
