<svg id="Шар_1" data-name="Шар 1" xmlns="http://www.w3.org/2000/svg" viewBox="0 0 100 100"><defs><style>.cls-1{fill:#242d36;}</style></defs><title>wood</title><path class="cls-1" d="M90,60.79l-.18,0H11.2a4.77,4.77,0,0,0-.8.1c-4.92,1-8.66,9-8.66,18.87,0,10.67,4.25,19.56,9.49,19.8H90v-.06c5.06-.64,9.07-9.07,9.07-19.34S95.05,61.43,90,60.79ZM11.24,97.87C7,97.68,3.38,89.37,3.38,79.72c0-9.2,3.42-16.87,7.66-17.31H85.46c-3.4,3-5.78,9.83-5.78,17.74s2.38,14.72,5.78,17.74ZM90,97.81a3.08,3.08,0,0,1-.62.06H89l-.11,0h-.07l-.23,0h0c-4.08-.91-7.25-8.57-7.25-17.64s3.18-16.72,7.27-17.64l.12,0,.18,0h.8c4.25.39,7.71,8.34,7.71,17.74C97.42,89.3,94.08,97.09,90,97.81Z"/><path class="cls-1" d="M89.38,60.75l-.44,0h.87Zm-.59,37.06-.17,0,.23,0Z"/><path class="cls-1" d="M84.17,35.16a2.84,2.84,0,0,0-.23.46A2.54,2.54,0,0,1,84.17,35.16Z"/><path class="cls-1" d="M88.76,45.63a7.66,7.66,0,0,1-1.23,0A8.74,8.74,0,0,0,88.76,45.63Z"/><path class="cls-1" d="M96.74,42.24a11.57,11.57,0,0,1-7.86,4.2,9.5,9.5,0,0,1-10.35-8.51,7.77,7.77,0,0,1,7-8.47,6.38,6.38,0,0,1,7,5.73,5.28,5.28,0,0,1-4.72,5.75,4.39,4.39,0,0,1-4.8-3.9v0a3.66,3.66,0,0,1,3.28-4,.82.82,0,0,1,.72,1.34.84.84,0,0,1-.56.3,2,2,0,0,0-1.81,2.19,2.72,2.72,0,0,0,3,2.44,3.62,3.62,0,0,0,3.24-3.94,4.74,4.74,0,0,0-5.16-4.24,6.13,6.13,0,0,0-5.47,6.64,7.83,7.83,0,0,0,8.55,7.05,10,10,0,0,0,9-10.93A12.74,12.74,0,0,0,83.81,22.47,16.1,16.1,0,0,0,69.37,40,20.33,20.33,0,0,0,91.57,58.28a.83.83,0,0,1,.9.74.81.81,0,0,1-.18.61.84.84,0,0,1-.56.3c-.78.07-1.49.1-2.19.1A21.9,21.9,0,0,1,67.72,40.21,17.76,17.76,0,0,1,83.64,20.83,14.38,14.38,0,0,1,99.33,33.71,11.57,11.57,0,0,1,96.74,42.24Z"/><path class="cls-1" d="M88.73,62.46l.11,0h.07Zm.2,0h0Zm.89-1.66.18,0v0Zm-.3,37.07-.28,0h.14a3.08,3.08,0,0,0,.62-.06v0Z"/><path class="cls-1" d="M11.84,60.75v0H11.2a4.77,4.77,0,0,0-.8.1v-.12Z"/><path class="cls-1" d="M11.84,62.4h0Z"/><path class="cls-1" d="M78.45,12.08c0,5.46-6.29,9.9-14,9.9a.82.82,0,1,1,0-1.65c6.82,0,12.37-3.7,12.37-8.25a.82.82,0,0,1,1.65,0Z"/><path class="cls-1" d="M63.19,29a.82.82,0,0,1-1.65,0,6.82,6.82,0,0,0-7-6.6.82.82,0,1,1,0-1.65A8.47,8.47,0,0,1,63.19,29Z"/><path class="cls-1" d="M15.34,54.15a.83.83,0,0,1-.82.82H10.39a.82.82,0,1,1,0-1.65h4.12A.83.83,0,0,1,15.34,54.15Z"/><path class="cls-1" d="M38,54.15a.83.83,0,0,1-.82.82H19.47a.82.82,0,0,1,0-1.65H37.2A.83.83,0,0,1,38,54.15Z"/><path class="cls-1" d="M40.09,58.69a.83.83,0,0,1-.82.82H28.13a.82.82,0,0,1,0-1.65H39.27A.83.83,0,0,1,40.09,58.69Z"/><path class="cls-1" d="M22.77,57.86a.83.83,0,0,1-.82.82H15.76a.82.82,0,1,1,0-1.65h6.19A.83.83,0,0,1,22.77,57.86Z"/><path class="cls-1" d="M41.33,80.13a.83.83,0,0,1-.82.82H21.94a.82.82,0,0,1,0-1.65H40.5A.83.83,0,0,1,41.33,80.13Z"/><path class="cls-1" d="M78,80.13a.83.83,0,0,1-.82.82H69.79a.82.82,0,0,1,0-1.65h7.42A.83.83,0,0,1,78,80.13Z"/><path class="cls-1" d="M73.91,89.62a.83.83,0,0,1-.82.82H43.8a.82.82,0,1,1,0-1.65H73.09A.83.83,0,0,1,73.91,89.62Z"/><path class="cls-1" d="M38.85,89.62a.83.83,0,0,1-.82.82H34.32a.82.82,0,0,1,0-1.65H38A.83.83,0,0,1,38.85,89.62Z"/><path class="cls-1" d="M32.67,69.41a.83.83,0,0,1-.82.82H6.27a.82.82,0,0,1,0-1.65H31.84A.83.83,0,0,1,32.67,69.41Z"/><path class="cls-1" d="M73.91,73.12a.83.83,0,0,1-.82.82H53.7a.82.82,0,1,1,0-1.65H73.09A.83.83,0,0,1,73.91,73.12Z"/><path class="cls-1" d="M27,32.34a2.48,2.48,0,0,0,.7,1.32l2.24,2.24a2.51,2.51,0,0,0,1,.63l-.74.74a2,2,0,0,0,0,2.82l1.34,1.34A2,2,0,0,0,33,42h0a2,2,0,0,0,1.29-.47,5.77,5.77,0,0,0,1.34,4L46.29,59.51H70.88L47.73,35.05l0,0a6.38,6.38,0,0,0-5.07-1.84,2,2,0,0,0,0-2.81L41.29,29a2,2,0,0,0-2.82,0l-.74.74a2.5,2.5,0,0,0-.63-1l-2.24-2.23a2.52,2.52,0,0,0-1.35-.7h0a3.35,3.35,0,0,0,.22-.46,4.25,4.25,0,0,0-.92-4.68L13.92,1.75a4.31,4.31,0,0,0-6.07,0L2.9,6.7a4.3,4.3,0,0,0,0,6.07l18.9,18.9a4.28,4.28,0,0,0,4.73.9,3.12,3.12,0,0,0,.45-.23m12.07-2.73,0,0,0,0ZM28.48,28.7l-.37.37-6.53-6.55a.82.82,0,0,0-1.41.57.85.85,0,0,0,.23.57L27,30.22l-.27.26a2.6,2.6,0,0,1-1.86.77h0A2.6,2.6,0,0,1,23,30.48L4.09,11.6a2.63,2.63,0,0,1,0-3.73L9,2.92a2.62,2.62,0,0,1,3.71,0L31.64,21.81a2.63,2.63,0,0,1,0,3.73Zm4.73,11.56a.33.33,0,0,1-.24.1.42.42,0,0,1-.24-.1L31.4,38.92a.34.34,0,0,1,0-.48l8.25-8.25a.32.32,0,0,1,.24-.1h0a.32.32,0,0,1,.24.1l1.34,1.34a.34.34,0,0,1,.1.24.33.33,0,0,1-.1.24Zm3.67,4.27a4.19,4.19,0,0,1,.24-5.63l2.71-2.72a4.74,4.74,0,0,1,6.69,0L67,57.86H47.09Z"/><path class="cls-1" d="M18.17,20.13l0,.06-.05,0a.83.83,0,0,1-1.12,0l-1.79-1.78a.83.83,0,0,1,0-1.1.82.82,0,0,1,1.16-.09L18.11,19A.83.83,0,0,1,18.17,20.13Z"/><path class="cls-1" d="M39.06,29.61h0l0,0Z"/></svg>