<svg width="16" height="20" viewBox="0 0 16 20" fill="none" xmlns="http://www.w3.org/2000/svg">
<path d="M2.48033 10.8679C2.50535 10.8055 2.75575 9.84329 2.7733 9.77814C2.38237 9.18991 1.9481 7.26364 2.2812 5.70007C2.64055 3.40591 5.07173 2.27814 7.36711 2.27814V2.27386C10.2409 2.2757 12.3921 3.87466 12.3944 6.62842C12.3963 8.78387 11.0977 11.633 8.88048 11.633C8.87986 11.633 8.87941 11.633 8.8788 11.633C8.08748 11.633 7.08558 11.2741 6.82283 10.9216C6.51964 10.5154 6.44517 10.0142 6.60539 9.47861C6.998 8.2254 7.49864 6.72424 7.55708 5.72327C7.61125 4.77859 6.94093 4.16397 6.07164 4.16397C5.41749 4.16397 4.56788 4.54391 4.14445 5.61157C3.79472 6.49857 3.8022 7.42722 4.16734 8.45032C4.3097 8.85025 3.53624 11.4575 3.28843 12.3065C2.67274 14.4156 1.82985 17.084 2.01005 18.5701L2.184 20L3.05772 18.855C4.26683 17.2722 5.51698 13.1779 5.85008 12.1817C6.83488 13.457 8.88566 13.4937 9.12477 13.4937C12.0616 13.4937 15.3919 10.5774 15.2974 6.51855C15.2145 2.95914 12.6096 0 7.92894 0V0.00457766C3.47673 0.00457766 0.878156 2.38098 0.242017 5.38361C-0.340563 8.16772 0.955061 10.2867 2.48033 10.8679Z" fill="#242D36"/>
</svg>
