<svg width="21" height="20" viewBox="0 0 21 20" fill="none" xmlns="http://www.w3.org/2000/svg">
<path d="M5.48033 10.8679C5.50535 10.8055 5.75575 9.84329 5.7733 9.77814C5.38237 9.18991 4.9481 7.26364 5.2812 5.70007C5.64055 3.40591 8.07173 2.27814 10.3671 2.27814V2.27386C13.2409 2.2757 15.3921 3.87466 15.3944 6.62842C15.3963 8.78387 14.0977 11.633 11.8805 11.633C11.8799 11.633 11.8794 11.633 11.8788 11.633C11.0875 11.633 10.0856 11.2741 9.82283 10.9216C9.51964 10.5154 9.44517 10.0142 9.60539 9.47861C9.998 8.2254 10.4986 6.72424 10.5571 5.72327C10.6112 4.77859 9.94093 4.16397 9.07164 4.16397C8.41749 4.16397 7.56788 4.54391 7.14445 5.61157C6.79472 6.49857 6.8022 7.42722 7.16734 8.45032C7.3097 8.85025 6.53624 11.4575 6.28843 12.3065C5.67274 14.4156 4.82985 17.084 5.01005 18.5701L5.184 20L6.05772 18.855C7.26683 17.2722 8.51698 13.1779 8.85008 12.1817C9.83488 13.457 11.8857 13.4937 12.1248 13.4937C15.0616 13.4937 18.3919 10.5774 18.2974 6.51855C18.2145 2.95914 15.6096 0 10.9289 0V0.00457766C6.47673 0.00457766 3.87816 2.38098 3.24202 5.38361C2.65944 8.16772 3.95506 10.2867 5.48033 10.8679Z" fill="#EEEDEB"/>
</svg>
